<?xml version="1.0" encoding="UTF-8" standalone="no"?>
<svg
   version="1.1"
   width="1920"
   height="1080"
   id="svg18"
   sodipodi:docname="3ecf88b3-13e4-4808-8df8-b0a49ac6509c.svg"
   xmlns:inkscape="http://www.inkscape.org/namespaces/inkscape"
   xmlns:sodipodi="http://sodipodi.sourceforge.net/DTD/sodipodi-0.dtd"
   xmlns="http://www.w3.org/2000/svg"
   xmlns:svg="http://www.w3.org/2000/svg">
  <defs
     id="defs18" />
  <sodipodi:namedview
     id="namedview18"
     pagecolor="#ffffff"
     bordercolor="#000000"
     borderopacity="0.25"
     inkscape:showpageshadow="2"
     inkscape:pageopacity="0.0"
     inkscape:pagecheckerboard="0"
     inkscape:deskcolor="#d1d1d1" />
  <path
     d="M0 0 C8.22894005 0.07189508 16.32769792 1.11890797 24.47680664 2.1784668 C27.13856745 2.52178504 29.80233621 2.84440489 32.46679688 3.16601562 C34.17333543 3.38287213 35.87972211 3.6009279 37.5859375 3.8203125 C38.37556381 3.91419754 39.16519012 4.00808258 39.97874451 4.10481262 C44.32495141 4.69007243 47.67774153 5.37188859 51.18359375 8.20703125 C52.45947266 10.29614258 52.45947266 10.29614258 53.41015625 12.7890625 C53.79171875 13.75884033 54.17328125 14.72861816 54.56640625 15.7277832 C54.97632813 16.81406006 55.38625 17.90033691 55.80859375 19.01953125 C56.51955094 20.83124888 57.23065826 22.64290993 57.94500732 24.45329285 C58.47423849 25.79567538 59.00155001 27.13881596 59.52716064 28.48262024 C62.8928701 37.07209202 66.44208015 45.5857401 69.97634888 54.10687256 C71.18903556 57.03266043 72.39861531 59.95971333 73.60717773 62.88720703 C77.48152149 72.27081077 81.36515058 81.65041765 85.26998901 91.02137756 C87.04587709 95.28457073 88.81792103 99.54935658 90.58959961 103.81430054 C91.44084628 105.8603779 92.29402304 107.90565339 93.14916992 109.95010376 C94.3359542 112.78770776 95.51631303 115.62790453 96.6953125 118.46875 C97.05058517 119.31339813 97.40585785 120.15804626 97.77189636 121.02828979 C98.09168961 121.80230133 98.41148285 122.57631287 98.7409668 123.3737793 C99.02119186 124.0455571 99.30141693 124.7173349 99.59013367 125.4094696 C100.18359375 127.20703125 100.18359375 127.20703125 100.18359375 130.20703125 C157.60359375 130.20703125 215.02359375 130.20703125 274.18359375 130.20703125 C274.51359375 128.55703125 274.84359375 126.90703125 275.18359375 125.20703125 C275.78099455 123.5814873 276.42543791 121.97273473 277.10693359 120.38061523 C277.50667389 119.44037506 277.90641418 118.50013489 278.31826782 117.53140259 C278.75593475 116.51557098 279.19360168 115.49973938 279.64453125 114.453125 C280.10258148 113.37960785 280.56063171 112.3060907 281.03256226 111.20004272 C282.53632835 107.67941491 284.04713838 104.16186409 285.55859375 100.64453125 C286.59823824 98.21780192 287.63762411 95.79096177 288.67675781 93.36401367 C290.53422032 89.02736005 292.39412125 84.69176347 294.25647736 80.35720921 C297.00767135 73.9536956 299.74685981 67.54516966 302.47634888 61.13237 C304.21444978 57.05129749 305.95861806 52.97283898 307.70440674 48.89505005 C308.52145959 46.98366407 309.33621241 45.07129321 310.14862061 43.15792847 C311.27328306 40.51117322 312.40691653 37.86844483 313.54296875 35.2265625 C313.87009857 34.45097992 314.19722839 33.67539734 314.53427124 32.87631226 C317.25837851 26.58594158 317.25837851 26.58594158 320.18359375 24.20703125 C324.06835681 23.71260686 326.29540687 23.67411912 329.68359375 25.70703125 C331.82487528 29.2758338 331.02147951 32.3085539 330.18359375 36.20703125 C329.29681943 38.96299471 328.17422861 41.58203632 327 44.2265625 C326.50933548 45.36641602 326.50933548 45.36641602 326.00875854 46.52929688 C325.30059746 48.17134475 324.58779573 49.81139758 323.87081909 51.44961548 C322.32969591 54.9709701 320.81090729 58.5018211 319.29048157 62.03215027 C318.48882418 63.89285313 317.68597932 65.75304479 316.88200378 67.61274719 C312.3752231 78.04551101 307.99647278 88.53115022 303.62109375 99.01953125 C302.88952619 100.77129114 302.15783959 102.52300133 301.42602539 104.2746582 C300.89702888 105.54142647 300.89702888 105.54142647 300.35734558 106.83378601 C299.66183523 108.49732676 298.96509048 110.16035202 298.26704407 111.8228302 C296.50163525 116.03038831 294.76002218 120.24553072 293.05517578 124.47802734 C292.70503922 125.33635666 292.35490265 126.19468597 291.99415588 127.07902527 C291.3332905 128.69974401 290.68057357 130.32382121 290.03794861 131.95185852 C289.5861599 133.05209602 289.5861599 133.05209602 289.12524414 134.17456055 C288.86997452 134.81064743 288.6147049 135.44673431 288.35169983 136.10209656 C286.65011915 139.16835592 284.83869449 141.9096506 282.18359375 144.20703125 C278.83531475 144.96093559 278.83531475 144.96093559 274.93864441 144.96652222 C274.21975062 144.97573232 273.50085683 144.98494242 272.76017839 144.99443161 C270.35654168 145.01798588 267.95516287 144.99891702 265.55151367 144.97998047 C263.82664609 144.9881521 262.10178927 144.99895499 260.37695312 145.01219177 C255.69742386 145.04064553 251.01859778 145.03227016 246.33903289 145.01732397 C241.44757076 145.00795029 236.55628099 145.03238874 231.66487122 145.05325317 C222.403697 145.087613 213.14276964 145.09152794 203.88154441 145.08452809 C193.33741854 145.07803919 182.79346634 145.10545487 172.24939191 145.1357305 C150.56077333 145.19724571 128.87229008 145.21614442 107.18359375 145.20703125 C107.54453125 146.11066406 107.90546875 147.01429688 108.27734375 147.9453125 C108.74140625 149.12480469 109.20546875 150.30429687 109.68359375 151.51953125 C110.3796875 153.27716797 110.3796875 153.27716797 111.08984375 155.0703125 C112.18359375 158.20703125 112.18359375 158.20703125 112.18359375 161.20703125 C113.01996494 161.20334408 113.85633614 161.19965691 114.71805191 161.195858 C135.05667115 161.10757032 155.39525742 161.04135251 175.73402786 160.99978256 C185.56966274 160.97914597 195.40516981 160.95100444 205.24072266 160.90527344 C213.81210532 160.86543922 222.38339543 160.83960642 230.95486808 160.83067727 C235.49460794 160.82545672 240.034083 160.81316387 244.5737381 160.78411102 C248.84516678 160.7569958 253.11622116 160.7485783 257.38772774 160.75460052 C258.95669907 160.75349853 260.5256827 160.74552129 262.0945797 160.73020935 C264.23500352 160.71034117 266.37400952 160.7150789 268.51446533 160.72601318 C269.71279621 160.72232601 270.91112709 160.71863884 272.14577103 160.71483994 C275.80218939 161.30725678 276.94635391 162.31500599 279.18359375 165.20703125 C280.12109375 167.64453125 280.12109375 167.64453125 280.18359375 170.20703125 C277.9895639 174.80404618 277.9895639 174.80404618 275.18359375 176.20703125 C272.99310562 176.32421727 270.79902861 176.37579307 268.60552979 176.39889526 C267.92201753 176.40736107 267.23850528 176.41582688 266.53428054 176.42454922 C264.2328409 176.45171864 261.93139542 176.47173166 259.62988281 176.49169922 C257.98416768 176.5094565 256.33845644 176.52757732 254.69274902 176.54603577 C249.27830123 176.60468315 243.8637806 176.65249355 238.44921875 176.69921875 C236.58644347 176.71572689 234.7236683 176.73224838 232.86089325 176.74878311 C225.11288342 176.81672962 217.3648582 176.88176868 209.61676407 176.93937492 C198.50714302 177.02209174 187.39797633 177.12183995 176.28873277 177.24546516 C168.48070044 177.33097873 160.67264794 177.39721813 152.86432052 177.4491111 C148.19923087 177.48061571 143.53457021 177.52057281 138.86975861 177.58105087 C134.48016056 177.63752322 130.0910272 177.67011953 125.70109558 177.68446159 C124.09098105 177.69385347 122.48088994 177.71185089 120.87097931 177.73914146 C118.66992594 177.77513523 116.47088951 177.77992267 114.26959229 177.77706909 C113.03883091 177.78775358 111.80806953 177.79843807 110.54001236 177.80944633 C106.03411798 177.0007216 104.41812225 175.40628296 101.18359375 172.20703125 C99.73071289 169.73217773 99.73071289 169.73217773 98.71875 167.078125 C98.31962402 166.06306885 97.92049805 165.0480127 97.50927734 164.00219727 C97.09242676 162.89416748 96.67557617 161.7861377 96.24609375 160.64453125 C95.53392577 158.82323904 94.82165686 157.00198383 94.10601807 155.18205261 C93.59700511 153.8864497 93.09001089 152.5900521 92.5848999 151.29292297 C90.70794582 146.48493889 88.7453728 141.71819317 86.734375 136.96484375 C86.43733673 136.26229462 86.14029846 135.55974548 85.83425903 134.83590698 C85.2212178 133.38637346 84.6081292 131.93685997 83.99499512 130.48736572 C77.49252025 115.08647735 71.39261556 99.54792297 65.41116333 83.9382019 C58.77721792 66.63136646 51.98981774 49.38863073 44.52099609 32.42089844 C44.2430571 31.78517914 43.9651181 31.14945984 43.67875671 30.49447632 C42.89324144 28.70064813 42.10145748 26.90956882 41.30932617 25.11865234 C40.18359375 22.20703125 40.18359375 22.20703125 40.18359375 19.20703125 C39.06597656 19.24441406 37.94835937 19.28179688 36.796875 19.3203125 C29.75021986 19.31617309 22.7634858 18.45402461 15.77075195 17.6628418 C13.36073463 17.39337298 10.94919017 17.14281224 8.53710938 16.89257812 C6.99596495 16.72120647 5.45494399 16.54871999 3.9140625 16.375 C3.19735886 16.30298874 2.48065521 16.23097748 1.74223328 16.15678406 C-2.23097331 15.68419266 -4.97029497 15.10959724 -7.81640625 12.20703125 C-9.02003209 8.51591199 -9.16058916 6.91104174 -7.44140625 3.39453125 C-4.90784581 -0.01603089 -4.26333953 0.04283079 0 0 Z "
     fill="#3785BE"
     transform="translate(493.81640625,515.79296875)"
     id="path1" />
  <path
     d="M0 0 C5.28 0 10.56 0 16 0 C21.48392708 10.79799801 26.63067176 21.66413004 31.5 32.75 C32.18058369 34.29152041 32.86158244 35.83285763 33.54296875 37.37402344 C34.96380962 40.5885025 36.38286465 43.8037613 37.80078125 47.01953125 C41.15828444 54.62917014 44.54136437 62.22745317 47.92211914 69.82678223 C49.63651922 73.68097883 51.34947366 77.53581769 53.0625 81.390625 C53.63671158 82.68262038 54.21092953 83.97461292 54.78515625 85.26660156 C55.18605469 86.16862305 55.58695313 87.07064453 56 88 C58.75692752 84.67411706 60.4559293 81.07213794 62.16015625 77.140625 C62.46237595 76.45532715 62.76459564 75.7700293 63.07597351 75.06396484 C63.73193546 73.57523094 64.38560196 72.08548398 65.03723145 70.59484863 C66.43528581 67.39741725 67.84494946 64.20515171 69.25418091 61.01263428 C70.00102266 59.32068621 70.74732993 57.62850212 71.49313354 55.93609619 C75.4765853 46.90189273 79.51343365 37.891883 83.56393433 28.88757324 C84.73053294 26.29329086 85.8947306 23.6979401 87.05883789 21.10253906 C87.78385324 19.49016076 88.50902459 17.8778526 89.234375 16.265625 C89.55669601 15.54616699 89.87901703 14.82670898 90.21110535 14.08544922 C92.35663163 9.32707644 94.6411032 4.65643879 97 0 C102.28 0 107.56 0 113 0 C113 36.63 113 73.26 113 111 C108.05 111 103.1 111 98 111 C97.67 85.59 97.34 60.18 97 34 C85.58518385 59.6314508 74.25823576 85.2994604 63 111 C58.71 111 54.42 111 50 111 C49.28457031 109.38738281 48.56914063 107.77476562 47.83203125 106.11328125 C37.29487195 82.37560665 26.65775399 58.68389775 16 35 C15.67 60.08 15.34 85.16 15 111 C10.05 111 5.1 111 0 111 C0 74.37 0 37.74 0 0 Z "
     fill="#3785BE"
     transform="translate(1368,555)"
     id="path2" />
  <path
     d="M0 0 C0.33 0 0.66 0 1 0 C1 6.6 1 13.2 1 20 C8.68248794 19.90558093 16.36469294 19.79930372 24.046875 19.68261719 C26.65360166 19.64462389 29.26037547 19.60972272 31.8671875 19.578125 C59.16431307 20.65917338 59.16431307 20.65917338 83.9375 11.3125 C84.948125 10.549375 85.95875 9.78625 87 9 C86.36385155 13.97688983 84.2213186 18.04999549 82.02734375 22.4921875 C81.42533897 23.72668137 81.42533897 23.72668137 80.81117249 24.9861145 C79.95897072 26.73069241 79.10395617 28.47389872 78.24633789 30.21582031 C76.96049868 32.82827333 75.68357782 35.44492524 74.40820312 38.0625 C70.57061496 45.91635106 66.6831948 53.74558499 62.6328125 61.4921875 C61.72426514 63.23411377 61.72426514 63.23411377 60.79736328 65.01123047 C56.37184545 72.37026189 50.02374055 76.45929194 41.80078125 78.5625 C38.15232628 79.13241207 34.55702677 79.14739773 30.875 79.125 C30.1010791 79.12306641 29.3271582 79.12113281 28.52978516 79.11914062 C19.66809952 79.05519581 10.84494258 78.52805627 2 78 C2 84.93 2 91.86 2 99 C-0.76220272 96.23779728 -2.51421931 94.47514702 -4.453125 91.33203125 C-5.12371948 90.25731567 -5.12371948 90.25731567 -5.80786133 89.16088867 C-6.28376709 88.38592041 -6.75967285 87.61095215 -7.25 86.8125 C-10.8761479 80.94952178 -14.55456152 75.13443657 -18.37890625 69.3984375 C-19.49108378 67.71548166 -20.60163719 66.03146695 -21.71154785 64.34701538 C-22.79856864 62.70849937 -23.90261261 61.08131828 -25.00683594 59.4543457 C-25.67102539 58.44202881 -26.33521484 57.42971191 -27.01953125 56.38671875 C-27.91828979 55.04420044 -27.91828979 55.04420044 -28.83520508 53.67456055 C-30.31017586 50.28778526 -29.99373958 48.51850379 -29 45 C-28.06713867 43.05981445 -28.06713867 43.05981445 -26.91796875 41.36328125 C-26.48637451 40.71294922 -26.05478027 40.06261719 -25.61010742 39.39257812 C-25.14064697 38.70615234 -24.67118652 38.01972656 -24.1875 37.3125 C-23.18627151 35.80941134 -22.18631964 34.30547169 -21.1875 32.80078125 C-20.66542969 32.01912598 -20.14335938 31.2374707 -19.60546875 30.43212891 C-16.39675517 25.57124011 -13.329119 20.62034557 -10.23706055 15.68481445 C-7.76116547 11.74657112 -5.25774775 7.82777956 -2.70703125 3.9375 C-2.21307861 3.18339844 -1.71912598 2.42929687 -1.21020508 1.65234375 C-0.8108374 1.10707031 -0.41146973 0.56179688 0 0 Z "
     fill="#87BC4A"
     transform="translate(712,537)"
     id="path3" />
  <path
     d="M0 0 C4.62282267 5.1449297 7.92186594 11.34291713 11.33544922 17.32226562 C12.40064916 19.18553959 13.4801867 21.03954064 14.56640625 22.890625 C16.19801165 25.67259462 17.82118608 28.45912998 19.4375 31.25 C26.03850635 28.03126924 26.03850635 28.03126924 32.4375 24.4375 C34.4375 23.25 34.4375 23.25 36.4375 23.25 C35.73094226 28.29228201 33.71878955 32.73323561 31.76171875 37.390625 C31.39528763 38.27224304 31.02885651 39.15386108 30.65132141 40.06219482 C29.48015567 42.87659978 28.3025407 45.68825728 27.125 48.5 C26.34400485 50.37613721 25.56340178 52.25243768 24.78320312 54.12890625 C24.02639303 55.94545892 23.26924233 57.76186974 22.51171875 59.578125 C22.1636467 60.41281311 21.81557465 61.24750122 21.45695496 62.10748291 C19.18902578 67.5212734 16.8430117 72.89594703 14.4375 78.25 C2.09866477 78.68236215 -10.10298087 77.37360756 -22.375 76.25 C-24.53185407 76.05676663 -26.68875486 75.86405404 -28.84570312 75.671875 C-34.08518928 75.20392009 -39.32406191 74.72953765 -44.5625 74.25 C-43.20728423 70.18435268 -40.52214829 69.1149215 -37 67.0625 C-36.38447266 66.69447266 -35.76894531 66.32644531 -35.13476562 65.94726562 C-33.61533891 65.040321 -32.08950967 64.14411832 -30.5625 63.25 C-33.55165419 56.86612798 -36.96186723 50.79439578 -40.62402344 44.77856445 C-45.03284947 37.5225951 -49.27531419 30.1706681 -53.51342773 22.81396484 C-60.86438285 10.13139846 -66.47936834 0.67887162 -80.5625 -4.75 C-80.5625 -5.08 -80.5625 -5.41 -80.5625 -5.75 C-75.74691702 -5.89565676 -70.93124762 -6.03787843 -66.11547852 -6.17724609 C-64.48556951 -6.22486034 -62.85568519 -6.27332918 -61.22583008 -6.32275391 C-8.87966678 -7.90655261 -8.87966678 -7.90655261 0 0 Z "
     fill="#87BB4C"
     transform="translate(728.5625,402.75)"
     id="path4" />
  <path
     d="M0 0 C58.97550111 0 58.97550111 0 70 10 C76.2818768 17.19309409 79.67378173 26.13438087 79.28515625 35.71484375 C78.02678307 45.79906714 73.79797507 54.36603308 65.8359375 60.74609375 C62.12970088 63.2773745 58.5636625 65 54 65 C56.25020476 68.84747427 58.50144896 72.69433795 60.75369263 76.5406189 C61.54040228 77.88427785 62.32692287 79.22804751 63.11325073 80.57192993 C68.2077095 89.27729847 73.33956996 97.95404649 78.62890625 106.54296875 C80 109 80 109 80 111 C72.41 111 64.82 111 57 111 C52.1953125 102.59179688 52.1953125 102.59179688 47.390625 94.18359375 C47.04281982 93.57509583 46.69501465 92.9665979 46.33666992 92.33966064 C45.63184483 91.10589066 44.92758229 89.87179914 44.22387695 88.63739014 C42.3902537 85.42265761 40.54600338 82.21475581 38.68359375 79.01660156 C38.3119812 78.37530304 37.94036865 77.73400452 37.55749512 77.07327271 C36.8459113 75.84587239 36.13096035 74.62041636 35.41223145 73.39718628 C33 69.22480412 33 69.22480412 33 67 C28.71 67 24.42 67 20 67 C20 81.52 20 96.04 20 111 C13.4 111 6.8 111 0 111 C0 74.37 0 37.74 0 0 Z M20 15 C20 27.21 20 39.42 20 52 C25.6925 52.0928125 25.6925 52.0928125 31.5 52.1875 C32.68013672 52.21481201 33.86027344 52.24212402 35.07617188 52.27026367 C42.21001823 52.32626027 48.34864578 52.04856899 54.05859375 47.28125 C54.74115234 46.39953125 54.74115234 46.39953125 55.4375 45.5 C55.91058594 44.9121875 56.38367188 44.324375 56.87109375 43.71875 C59.96230305 39.01241058 59.4183443 33.3997403 59 28 C57.26675422 22.80026266 54.44573242 20.13816406 50 17 C44.10882845 14.24888929 37.97830203 14.77846603 31.625 14.875 C25.870625 14.936875 25.870625 14.936875 20 15 Z "
     fill="#87BB4C"
     transform="translate(883,555)"
     id="path5" />
  <path
     d="M0 0 C7.72307316 17.97643417 15.39580588 35.9728938 23 54 C21.515 54.495 21.515 54.495 20 55 C17.65717548 53.76585956 15.51707416 52.50753507 13.3125 51.0625 C12.70599609 50.67642578 12.09949219 50.29035156 11.47460938 49.89257812 C9.97719735 48.93753581 8.48780599 47.96993914 7 47 C4.90536635 49.72290804 3.01335776 52.49566935 1.21484375 55.421875 C0.68898682 56.27450928 0.16312988 57.12714355 -0.37866211 58.00561523 C-0.93432861 58.91126221 -1.48999512 59.81690918 -2.0625 60.75 C-8.80961252 71.73518684 -8.80961252 71.73518684 -11.8671875 76.44921875 C-20.61356402 89.97092513 -27.6116079 103.48658658 -27 120 C-27.66 120 -28.32 120 -29 120 C-32.72079212 112.30403758 -36.43751295 104.6061339 -40.14916992 96.90576172 C-42.17090116 92.71321748 -44.20194766 88.5253219 -46.23828125 84.33984375 C-47.20066589 82.35163271 -48.16291407 80.36335561 -49.125 78.375 C-49.56110596 77.48417725 -49.99721191 76.59335449 -50.4465332 75.67553711 C-61.29895675 53.17081443 -61.29895675 53.17081443 -58.38671875 42.8203125 C-55.507643 35.08358912 -51.17550138 28.08693497 -47 21 C-45.65996284 18.67042341 -44.32953924 16.33559683 -43 14 C-44.0828125 13.37351562 -45.165625 12.74703125 -46.28125 12.1015625 C-47.68772737 11.27642911 -49.09396511 10.45088716 -50.5 9.625 C-51.21542969 9.2125 -51.93085937 8.8 -52.66796875 8.375 C-54.47924311 7.30548562 -56.24404186 6.1580962 -58 5 C-58 4.34 -58 3.68 -58 3 C-52.31207581 2.56507738 -46.62361849 2.13822661 -40.93457031 1.71826172 C-39.00667718 1.57487266 -37.07893561 1.42942822 -35.15136719 1.28173828 C-23.40631066 0.38344312 -11.78258874 -0.22788675 0 0 Z "
     fill="#87BC4A"
     transform="translate(618,477)"
     id="path6" />
  <path
     d="M0 0 C9.11715132 7.77930847 15.17558595 17.66953136 16.1875 29.8125 C16.35569642 35.02658902 16.45866195 39.72785218 15.1875 44.8125 C-6.9225 44.8125 -29.0325 44.8125 -51.8125 44.8125 C-47.89755574 56.63858065 -47.89755574 56.63858065 -39.125 64.125 C-31.54817593 67.50827228 -24.80958963 67.29361299 -17.0390625 64.69921875 C-12.67555722 63.14342549 -12.67555722 63.14342549 -9.6875 59.875 C-9.39875 59.194375 -9.11 58.51375 -8.8125 57.8125 C-7.8225 56.3275 -7.8225 56.3275 -6.8125 54.8125 C-4.74951172 54.47192383 -4.74951172 54.47192383 -2.2421875 54.51953125 C-1.34628906 54.52919922 -0.45039062 54.53886719 0.47265625 54.54882812 C1.87837891 54.5865332 1.87837891 54.5865332 3.3125 54.625 C4.72982422 54.64530273 4.72982422 54.64530273 6.17578125 54.66601562 C8.51358779 54.70143694 10.85026237 54.75082729 13.1875 54.8125 C12.07503077 63.82867506 6.22551157 71.23494538 -0.8125 76.8125 C-12.24461293 83.97181325 -25.11644395 85.69606056 -38.3515625 83.125 C-50.47161458 79.71889637 -59.87598059 73.1569719 -66.3515625 62.2109375 C-72.74209045 49.24302406 -73.72667584 33.62226591 -69.125 19.875 C-64.71318189 9.3496625 -57.69645224 0.09037088 -47 -4.5625 C-31.58783485 -9.91394623 -13.6172611 -9.93069295 0 0 Z M-45.6953125 15.8671875 C-49.3329844 20.94586953 -50.20234615 24.37188462 -51.8125 30.8125 C-35.9725 30.8125 -20.1325 30.8125 -3.8125 30.8125 C-5.87043829 20.52280854 -7.3931178 16.71949647 -15.5 10.875 C-25.49812953 6.28126481 -38.11086677 7.59038573 -45.6953125 15.8671875 Z "
     fill="#87BB4C"
     transform="translate(1335.8125,584.1875)"
     id="path7" />
  <path
     d="M0 0 C9.11715132 7.77930847 15.17558595 17.66953136 16.1875 29.8125 C16.35569642 35.02658902 16.45866195 39.72785218 15.1875 44.8125 C-6.9225 44.8125 -29.0325 44.8125 -51.8125 44.8125 C-47.89755574 56.63858065 -47.89755574 56.63858065 -39.125 64.125 C-31.54817593 67.50827228 -24.80958963 67.29361299 -17.0390625 64.69921875 C-12.67555722 63.14342549 -12.67555722 63.14342549 -9.6875 59.875 C-9.39875 59.194375 -9.11 58.51375 -8.8125 57.8125 C-7.8225 56.3275 -7.8225 56.3275 -6.8125 54.8125 C-4.74951172 54.47192383 -4.74951172 54.47192383 -2.2421875 54.51953125 C-1.34628906 54.52919922 -0.45039062 54.53886719 0.47265625 54.54882812 C1.87837891 54.5865332 1.87837891 54.5865332 3.3125 54.625 C4.72982422 54.64530273 4.72982422 54.64530273 6.17578125 54.66601562 C8.51358779 54.70143694 10.85026237 54.75082729 13.1875 54.8125 C12.07503077 63.82867506 6.22551157 71.23494538 -0.8125 76.8125 C-12.24461293 83.97181325 -25.11644395 85.69606056 -38.3515625 83.125 C-50.47161458 79.71889637 -59.87598059 73.1569719 -66.3515625 62.2109375 C-72.74209045 49.24302406 -73.72667584 33.62226591 -69.125 19.875 C-64.71318189 9.3496625 -57.69645224 0.09037088 -47 -4.5625 C-31.58783485 -9.91394623 -13.6172611 -9.93069295 0 0 Z M-45.6953125 15.8671875 C-49.3329844 20.94586953 -50.20234615 24.37188462 -51.8125 30.8125 C-35.9725 30.8125 -20.1325 30.8125 -3.8125 30.8125 C-5.87043829 20.52280854 -7.3931178 16.71949647 -15.5 10.875 C-25.49812953 6.28126481 -38.11086677 7.59038573 -45.6953125 15.8671875 Z "
     fill="#87BB4C"
     transform="translate(1048.8125,584.1875)"
     id="path8" />
  <path
     d="M0 0 C2.0078125 1.59765625 2.0078125 1.59765625 6.0078125 5.59765625 C6.3378125 1.63765625 6.6678125 -2.32234375 7.0078125 -6.40234375 C12.2878125 -6.40234375 17.5678125 -6.40234375 23.0078125 -6.40234375 C23.0078125 22.63765625 23.0078125 51.67765625 23.0078125 81.59765625 C17.7278125 81.59765625 12.4478125 81.59765625 7.0078125 81.59765625 C6.6778125 77.63765625 6.3478125 73.67765625 6.0078125 69.59765625 C5.2859375 70.34015625 4.5640625 71.08265625 3.8203125 71.84765625 C-5.80938155 81.2633571 -15.14385588 83.94709141 -28.42578125 83.80859375 C-38.92086941 83.18785469 -48.61375122 78.55223084 -55.8046875 70.84765625 C-64.32266998 60.22523105 -68.45009938 46.18458499 -66.9921875 32.59765625 C-65.0466863 18.73596017 -60.30495394 7.84972544 -49.15625 -0.83203125 C-34.40272975 -11.0089493 -14.39791996 -9.96166049 0 0 Z M-42.578125 13.84765625 C-49.69586672 22.65635319 -51.79163741 32.58301299 -50.9921875 43.59765625 C-49.50294527 52.1797301 -45.49911493 58.56730171 -39.1171875 64.41015625 C-31.8245077 69.51503211 -24.84811871 70.63483738 -15.9921875 69.59765625 C-7.8367976 67.39196827 -2.33458682 63.96564415 2.1953125 56.78515625 C7.41758895 47.53541724 8.57684223 37.9824309 6.35546875 27.52734375 C3.74140775 19.47199699 -0.60678285 13.09014394 -8.2421875 9.16015625 C-19.72641673 4.03819001 -33.05164685 5.33236851 -42.578125 13.84765625 Z "
     fill="#3785BE"
     transform="translate(1565.9921875,584.40234375)"
     id="path9" />
  <path
     d="M0 0 C6.27 0 12.54 0 19 0 C19.0093457 1.67956787 19.01869141 3.35913574 19.02832031 5.08959961 C19.06399462 10.66972262 19.11788478 16.24947589 19.18390274 21.82932186 C19.22323359 25.20890542 19.25549156 28.58823407 19.27099609 31.96801758 C19.29250464 35.86321532 19.33919968 39.75743984 19.390625 43.65234375 C19.39185364 44.8526976 19.39308228 46.05305145 19.39434814 47.28977966 C19.53575811 55.46877165 20.48904759 62.39665411 26.375 68.4375 C32.4137726 72.0320075 38.0867552 72.71327129 45 72 C49.65618536 70.76853785 53.60337195 68.39662805 57 65 C61.20608714 56.88826052 61.18152938 48.96873188 61.31640625 40.0390625 C61.33718735 38.89335785 61.35796844 37.7476532 61.37937927 36.56723022 C61.44458218 32.91987914 61.50362352 29.27245816 61.5625 25.625 C61.60571305 23.14712829 61.64932822 20.66926356 61.69335938 18.19140625 C61.80023356 12.12767516 61.90158309 6.06387401 62 0 C68.27 0 74.54 0 81 0 C81 29.04 81 58.08 81 88 C74.73 88 68.46 88 62 88 C61.505 84.535 61.505 84.535 61 81 C60.47792969 81.39832031 59.95585938 81.79664063 59.41796875 82.20703125 C49.7675577 89.1532991 39.73060339 91.37489817 28.0234375 89.53125 C18.55565693 87.51784856 10.83152369 83.56165871 5.37982178 75.3405304 C0.05446628 66.3073664 -0.55427229 57.6632017 -0.390625 47.36328125 C-0.38314438 45.98895602 -0.37746008 44.61461996 -0.37347412 43.24028015 C-0.35836045 39.66115732 -0.31920709 36.08270649 -0.2746582 32.50384521 C-0.23339283 28.83664027 -0.21539711 25.16932441 -0.1953125 21.50195312 C-0.15269431 14.33429675 -0.08246694 7.16732897 0 0 Z "
     fill="#87BB4C"
     transform="translate(1082,578)"
     id="path10" />
  <path
     d="M0 0 C5.22799323 5.96491781 6.03592303 12.28738424 7 20 C0.73 20 -5.54 20 -12 20 C-13.051875 17.6178125 -13.051875 17.6178125 -14.125 15.1875 C-15.76773097 11.9613589 -16.78414555 10.17473932 -19.625 7.875 C-25.74901461 6.28729251 -31.49210311 6.25203075 -37.5625 8.0625 C-40.93227468 10.74103885 -41.4894145 12.76943442 -42 17 C-41.07584986 20.0568043 -40.03056555 21.43002953 -37.22412109 22.98217773 C-30.16110803 26.12496854 -22.89460234 28.17869631 -15.43945312 30.1796875 C-6.15780339 32.84038603 0.28959231 37.21308042 6 45 C8.3755209 52.1265627 8.10583796 60.65256531 5 67.5 C0.23792431 75.56907269 -6.59375725 78.87030546 -15.44140625 81.3046875 C-27.06083813 83.5750046 -39.02366511 82.60222888 -49.41015625 76.609375 C-55.89184809 72.0055565 -60.41326304 66.62406683 -63 59 C-63 57.02 -63 55.04 -63 53 C-56.4 53 -49.8 53 -43 53 C-42.01 55.97 -41.02 58.94 -40 62 C-37.74303573 63.58612501 -37.74303573 63.58612501 -35 64 C-34.113125 64.391875 -33.22625 64.78375 -32.3125 65.1875 C-26.32662408 66.65573372 -21.04973386 65.89900608 -15.4375 63.4375 C-11.96814386 59.96814386 -12.07710449 57.85758257 -12 53 C-12.33 52.01 -12.66 51.02 -13 50 C-15.76558872 48.84515001 -15.76558872 48.84515001 -19 48 C-19.94020996 47.70367676 -20.88041992 47.40735352 -21.84912109 47.10205078 C-23.29665771 46.65321533 -23.29665771 46.65321533 -24.7734375 46.1953125 C-25.8459375 45.85886719 -26.9184375 45.52242187 -28.0234375 45.17578125 C-30.2484744 44.4781881 -32.47503491 43.78543523 -34.703125 43.09765625 C-54.23632023 36.93790763 -54.23632023 36.93790763 -59.3125 28.625 C-62.2732012 22.17187984 -62.11944185 14.35882669 -60.375 7.56640625 C-57.24873697 0.40670565 -51.03650732 -4.36553995 -44 -7.375 C-29.62402349 -12.45015534 -11.43078549 -10.87674232 0 0 Z "
     fill="#87BB4C"
     transform="translate(1244,586)"
     id="path11" />
  <path
     d="M0 0 C1.64373596 0.01057434 1.64373596 0.01057434 3.32067871 0.0213623 C7.40571529 0.05792786 11.49001964 0.15565897 15.57421875 0.24609375 C29.27953125 0.46265625 29.27953125 0.46265625 43.26171875 0.68359375 C43.26171875 19.16359375 43.26171875 37.64359375 43.26171875 56.68359375 C31.25796875 56.86921875 31.25796875 56.86921875 19.01171875 57.05859375 C15.26006348 57.14052979 15.26006348 57.14052979 11.43261719 57.22412109 C-10.68060597 57.50894063 -10.68060597 57.50894063 -18.73828125 50.68359375 C-23.63552353 44.99683776 -26.32652352 39.47785484 -25.953125 31.80078125 C-25.0389544 22.79204553 -22.32551505 15.52227544 -17.73828125 7.68359375 C-17.46936066 7.09091705 -17.20044006 6.49824036 -16.92337036 5.88760376 C-13.106999 -1.17828407 -7.30452765 -0.22101784 0 0 Z "
     fill="#87BC4A"
     transform="translate(620.73828125,558.31640625)"
     id="path12" />
  <path
     d="M0 0 C3.20026496 1.40479638 4.68419323 4.40374731 6.49580383 7.25871277 C6.92457825 7.9203241 7.35335266 8.58193542 7.79512024 9.26359558 C28.30300124 41.38041541 28.30300124 41.38041541 25.87080383 53.82121277 C23.43202447 61.21622116 19.66327086 66.02948441 12.87080383 69.82121277 C5.7345994 73.22195559 -1.74261728 74.1143958 -9.56669617 74.50871277 C-10.29179382 74.58799011 -11.01689148 74.66726746 -11.76396179 74.74894714 C-14.20848184 74.84338952 -15.84126513 74.70950691 -18.12919617 73.82121277 C-21.0613897 70.85295482 -23.02849547 67.40632586 -25.12919617 63.82121277 C-26.38927201 61.83756811 -27.65235795 59.85583275 -28.91825867 57.87590027 C-30.19970281 55.81774407 -31.47832747 53.75782987 -32.75419617 51.69621277 C-33.39614929 50.66367371 -34.03810242 49.63113464 -34.69950867 48.56730652 C-35.94377253 46.56577551 -37.18387766 44.56165147 -38.41923523 42.55461121 C-39.49714293 40.83155944 -40.60018212 39.12374177 -41.7375946 37.43937683 C-42.2045575 36.74296082 -42.67152039 36.0465448 -43.15263367 35.32902527 C-43.56174988 34.74008484 -43.97086609 34.15114441 -44.39237976 33.5443573 C-45.39651601 31.19604926 -45.02871044 30.19175937 -44.12919617 27.82121277 C-42.44137573 26.27047729 -42.44137573 26.27047729 -40.22367859 24.78092957 C-39.3957933 24.21742294 -38.56790802 23.65391632 -37.7149353 23.07333374 C-36.81394608 22.47837601 -35.91295685 21.88341827 -34.98466492 21.27043152 C-34.06333267 20.65223038 -33.14200043 20.03402924 -32.19274902 19.39709473 C-30.24202922 18.09288447 -28.28737565 16.79454182 -26.32914734 15.50163269 C-23.32763927 13.5159523 -20.34422893 11.50505534 -17.36161804 9.49113464 C-15.46617124 8.22850795 -13.56971939 6.96738845 -11.67216492 5.70793152 C-10.77724838 5.10285263 -9.88233185 4.49777374 -8.96029663 3.87435913 C-8.12295486 3.32661331 -7.2856131 2.77886749 -6.42289734 2.21452332 C-5.32155708 1.48316414 -5.32155708 1.48316414 -4.19796753 0.73703003 C-2.12919617 -0.17878723 -2.12919617 -0.17878723 0 0 Z "
     fill="#87BB4C"
     transform="translate(775.1291961669922,478.1787872314453)"
     id="path13" />
  <path
     d="M0 0 C1.97242385 0.95976179 3.65136681 1.93827562 5.4140625 3.2421875 C6.21457031 3.80808594 7.01507812 4.37398438 7.83984375 4.95703125 C10.86566739 7.64308107 12.88305261 10.63857624 14.9765625 14.0546875 C15.34974609 14.64572266 15.72292969 15.23675781 16.10742188 15.84570312 C16.85394643 17.03624751 17.59054768 18.23307419 18.31689453 19.43603516 C19.06197631 20.662585 19.82958327 21.87567532 20.61669922 23.07568359 C23.46327172 27.58937713 23.46327172 27.58937713 23.23876953 30.56762695 C22.2200413 33.87140665 20.69403463 36.45428723 18.87890625 39.3984375 C18.52196182 39.98202026 18.1650174 40.56560303 17.79725647 41.16687012 C16.65563673 43.02968341 15.50384743 44.88595684 14.3515625 46.7421875 C13.60413422 47.95791339 12.85738357 49.17405616 12.11132812 50.390625 C10.26073339 53.40472372 8.40173443 56.41353354 6.54022217 59.42089844 C4.64025325 62.49363556 2.7480511 65.57114734 0.85546875 68.6484375 C0.19361572 69.72416016 -0.4682373 70.79988281 -1.15014648 71.90820312 C-1.62395752 72.67841797 -2.09776855 73.44863281 -2.5859375 74.2421875 C-6.56737688 73.67435957 -9.14660245 72.48604087 -12.47265625 70.25 C-13.40319824 69.63229736 -14.33374023 69.01459473 -15.29248047 68.37817383 C-16.27619629 67.71454834 -17.25991211 67.05092285 -18.2734375 66.3671875 C-26.46599029 60.90657259 -34.70389045 55.61327939 -43.2644043 50.74462891 C-48.35504219 47.74874016 -48.35504219 47.74874016 -49.43725586 45.37451172 C-49.63866398 42.48600845 -48.75750483 41.27325507 -47.19140625 38.85546875 C-46.65257812 38.00718506 -46.11375 37.15890137 -45.55859375 36.28491211 C-44.96949219 35.38393799 -44.38039063 34.48296387 -43.7734375 33.5546875 C-42.56705667 31.66791444 -41.36265555 29.77987424 -40.16015625 27.890625 C-39.55606934 26.94541992 -38.95198242 26.00021484 -38.32958984 25.02636719 C-35.37036187 20.30121516 -32.61798673 15.45345219 -29.92260742 10.57348633 C-23.48891649 -0.70760223 -12.28858669 -3.60118704 0 0 Z "
     fill="#87BB4C"
     transform="translate(650.5859375,402.7578125)"
     id="path14" />
  <path
     d="M0 0 C4.95 0 9.9 0 15 0 C15 7.26 15 14.52 15 22 C22.59 22 30.18 22 38 22 C38 26.29 38 30.58 38 35 C30.41 35 22.82 35 15 35 C15.07407642 42.42041396 15.15698262 49.83964004 15.26245117 57.25952148 C15.29565129 59.78224481 15.32369842 62.30504154 15.34643555 64.82788086 C15.38007096 68.45979006 15.43239367 72.09102957 15.48828125 75.72265625 C15.49467117 76.84583755 15.5010611 77.96901886 15.50764465 79.12623596 C15.61994807 85.14345353 15.99330792 89.72434979 19 95 C22.29960141 96.6498007 25.99127884 96.38258361 29.625 96.5625 C30.82769531 96.62727539 30.82769531 96.62727539 32.0546875 96.69335938 C34.0362511 96.79951457 36.01810271 96.90026855 38 97 C38 101.29 38 105.58 38 110 C34.33252724 110.1085765 30.66831194 110.18759858 27 110.25 C25.97003906 110.28351563 24.94007812 110.31703125 23.87890625 110.3515625 C16.65211951 110.44362348 10.97307937 109.60271838 5.48095703 104.62255859 C0.97793235 99.64928646 -0.25517853 94.45659786 -0.22705078 87.90283203 C-0.22689972 86.72206085 -0.22674866 85.54128967 -0.22659302 84.32473755 C-0.21627045 83.06515228 -0.20594788 81.80556702 -0.1953125 80.5078125 C-0.1924826 79.20673553 -0.18965271 77.90565857 -0.18673706 76.56515503 C-0.17913675 73.1226418 -0.15951973 69.68029997 -0.1373291 66.237854 C-0.11679261 62.71848875 -0.10771873 59.19909553 -0.09765625 55.6796875 C-0.07626999 48.78638125 -0.04111765 41.89321652 0 35 C-3.63 35 -7.26 35 -11 35 C-11 30.71 -11 26.42 -11 22 C-7.37 22 -3.74 22 0 22 C0 14.74 0 7.48 0 0 Z "
     fill="#3785BE"
     transform="translate(1674,556)"
     id="path15" />
  <path
     d="M0 0 C6.54742208 6.92619856 8.45728797 13.43933116 8.43164062 22.83374023 C8.22235744 30.24050836 6.1419457 35.61100615 1.0625 41.08984375 C-5.86001695 47.50103843 -11.91808287 48.64957825 -21.26171875 48.375 C-28.22760568 47.67622764 -32.69105942 44.67362695 -37.375 39.625 C-42.71075734 32.75207157 -44.48411216 25.26188549 -43.8203125 16.67578125 C-42.47892709 8.83278291 -38.26209608 2.5398299 -32.125 -2.4375 C-21.530022 -9.66134863 -9.77019743 -7.81615794 0 0 Z M-28 14 C-29.95144301 18.13705917 -30.32442399 20.8991948 -28.9375 25.1875 C-27.29043859 28.87548533 -25.64374972 31.05666682 -22 33 C-17.70082326 33.83716221 -14.8872973 33.54009401 -11.125 31.25 C-7.41264944 27.31927588 -6.54142197 24.57098628 -6.67578125 19.03125 C-7.20997596 15.68448796 -8.86876226 13.55748529 -11 11 C-17.52995758 6.64669495 -23.02594815 8.43379913 -28 14 Z "
     fill="#3683BC"
     transform="translate(753,707)"
     id="path16" />
  <path
     d="M0 0 C6.10372032 6.44351506 8.84534063 13.15629631 9 22 C8.40445429 30.43028032 5.29386591 37.16589793 -1.04296875 42.82421875 C-7.81616525 47.77524557 -14.7925345 49.72498727 -23.125 48.5 C-31.05833253 46.52288421 -36.56412859 41.49172608 -40.8046875 34.62109375 C-43.96639326 27.68807229 -45.00123955 19.50918112 -42.89453125 12.12890625 C-39.25530285 3.4678605 -33.63436305 -2.29955869 -25 -6 C-15.49184468 -8.53550809 -7.59096106 -5.97997612 0 0 Z M-27 13 C-29.12006642 16.27054615 -30.25794649 19.24214241 -29.68359375 23.15625 C-28.21003581 27.66954746 -26.30953323 30.75154788 -22 33 C-17.51428367 33.7829614 -14.15120589 33.62565538 -10.125 31.4375 C-7.39262574 28.303306 -6.0621659 26.04950749 -5 22 C-5.59491634 17.03957077 -7.0944295 13.84382706 -10.75 10.4375 C-17.16834115 7.59861834 -21.79394482 8.26722256 -27 13 Z "
     fill="#3684BC"
     transform="translate(652,707)"
     id="path17" />
  <path
     d="M0 0 C0 5.28 0 10.56 0 16 C-1.629375 16.0825 -3.25875 16.165 -4.9375 16.25 C-11.21664666 16.84801397 -16.88494701 18.0677374 -21.59765625 22.50390625 C-27.64636102 30.1044653 -27.31609218 40.00083566 -27.4140625 49.25390625 C-27.43342865 50.39536606 -27.4527948 51.53682587 -27.4727478 52.71287537 C-27.53213598 56.32934285 -27.57876535 59.94584286 -27.625 63.5625 C-27.6632173 66.02670596 -27.70227117 68.4908991 -27.7421875 70.95507812 C-27.83780387 76.96994693 -27.9219845 82.9848782 -28 89 C-32.95 89 -37.9 89 -43 89 C-43 59.96 -43 30.92 -43 1 C-38.05 1 -33.1 1 -28 1 C-27.67 5.29 -27.34 9.58 -27 14 C-26.38125 12.96875 -25.7625 11.9375 -25.125 10.875 C-21.49634295 5.75952932 -16.03892219 2.48297359 -10.19140625 0.3359375 C-6.83167367 -0.17910172 -3.39898049 0 0 0 Z "
     fill="#3785BE"
     transform="translate(1655,577)"
     id="path18" />
</svg>
