<?xml version="1.0" encoding="UTF-8"?>
<svg version="1.1" xmlns="http://www.w3.org/2000/svg" width="1200" height="1200">
<path d="M0 0 C0.92425781 0.40089844 1.84851563 0.80179688 2.80078125 1.21484375 C19.66422695 9.44382362 28.17126312 23.82367757 36.203125 40.078125 C36.76642517 41.20659851 37.32972534 42.33507202 37.91009521 43.4977417 C39.09606975 45.87637313 40.27979574 48.2559517 41.45947266 50.63769531 C43.22497595 54.20212899 45.00082507 57.76135505 46.77734375 61.3203125 C52.59321842 72.99225812 58.3155828 84.70262557 63.9130249 96.48077393 C69.27743914 107.73570743 74.89554861 118.86323543 80.5 130 C87.07138325 143.05818234 93.57718736 156.13599641 99.84936523 169.34082031 C105.23295101 180.64354699 110.87244987 191.81733525 116.5 203 C123.07390754 216.06319843 129.58397539 229.14568791 135.86076355 242.35455322 C140.69831361 252.5126199 145.71435683 262.5797364 150.75415039 272.63867188 C152.33196421 275.78886134 153.90540408 278.94121016 155.47851562 282.09375 C156.50234727 284.14075351 157.52642661 286.18763315 158.55078125 288.234375 C159.01027664 289.15539001 159.46977203 290.07640503 159.94319153 291.02532959 C169.06214784 309.19858122 177.09147791 321.05869733 197 328 C201.03972741 328.98418658 205.08536333 329.59746386 209.20343018 330.15545654 C210.35507267 330.32466126 211.50671515 330.49386598 212.6932559 330.66819811 C216.46960732 331.21930585 220.24873962 331.74790229 224.02832031 332.27636719 C226.71493213 332.6621103 229.40083134 333.05271251 232.08675003 333.44324875 C237.64968829 334.24979938 243.2140452 335.04574879 248.77967834 335.83348083 C256.46668771 336.92161641 264.15042407 338.03161699 271.83337402 339.14807129 C282.87859149 340.75085525 293.92581476 342.33921952 304.97412705 343.92051864 C314.26847812 345.25097766 323.56209563 346.58644912 332.85528564 347.92498779 C334.24395774 348.12498211 335.63262985 348.32497627 337.02130198 348.52497029 C339.82209422 348.92835462 342.62288181 349.33177114 345.42366648 349.73520803 C352.4838947 350.75218413 359.54414806 351.76898511 366.60449219 352.78515625 C367.30803759 352.88641732 368.011583 352.98767838 368.73644796 353.09200796 C380.25719045 354.74991954 391.77912059 356.39944746 403.30142698 358.04645029 C415.27390486 359.75803189 427.24489973 361.47972058 439.21463132 363.21040416 C445.87997863 364.17382507 452.5459537 365.13231076 459.21364594 366.07938385 C465.44421506 366.96444098 471.67287557 367.86188973 477.90032196 368.76865005 C480.16991941 369.09691585 482.44016452 369.4207423 484.71110535 369.73958206 C507.96201535 373.00917771 527.03028301 377.50472074 543 396 C545.30959007 399.20563435 547.2297558 402.4709695 549 406 C549.38800781 406.7734375 549.77601562 407.546875 550.17578125 408.34375 C556.40402609 421.57027723 557.43509175 438.11251527 553.375 452.1875 C547.44421106 468.05804323 536.41024521 478.76389278 524.65209961 490.47827148 C522.9329133 492.19207233 521.21917417 493.91119082 519.50585938 495.63085938 C518.38834145 496.74771673 517.27051348 497.86426397 516.15234375 498.98046875 C515.65314926 499.48168747 515.15395477 499.98290619 514.63963318 500.49931335 C511.87839217 503.24282341 509.04487323 505.85401775 506.09790039 508.39770508 C501.97197805 511.97497519 498.11684671 515.77209248 494.28125 519.65625 C493.22798523 520.7151947 493.22798523 520.7151947 492.15344238 521.79553223 C489.93315397 524.02791358 487.71616045 526.26352111 485.5 528.5 C482.57590521 531.45090378 479.64836943 534.39833203 476.71875 537.34375 C476.063302 538.00749634 475.407854 538.67124268 474.73254395 539.35510254 C470.95033123 543.15701303 467.04683553 546.73309695 462.98815918 550.23669434 C459.60949215 553.23324651 456.45330837 556.44403159 453.28125 559.65625 C452.22798523 560.7151947 452.22798523 560.7151947 451.15344238 561.79553223 C448.93315397 564.02791358 446.71616045 566.26352111 444.5 568.5 C441.57590521 571.45090378 438.64836943 574.39833203 435.71875 577.34375 C435.063302 578.00749634 434.407854 578.67124268 433.73254395 579.35510254 C429.95033123 583.15701303 426.04683553 586.73309695 421.98815918 590.23669434 C418.60949215 593.23324651 415.45330837 596.44403159 412.28125 599.65625 C411.57907349 600.36221313 410.87689697 601.06817627 410.15344238 601.79553223 C407.93315397 604.02791358 405.71616045 606.26352111 403.5 608.5 C400.57590521 611.45090378 397.64836943 614.39833203 394.71875 617.34375 C394.063302 618.00749634 393.407854 618.67124268 392.73254395 619.35510254 C389.58920073 622.51481629 386.40308127 625.56135823 383.02734375 628.47265625 C378.76366284 632.15336253 374.80152703 636.08900045 370.84375 640.09375 C370.0971814 640.84410522 369.35061279 641.59446045 368.5814209 642.36755371 C366.21847975 644.7425992 363.8588263 647.12086817 361.5 649.5 C358.38839354 652.63839217 355.27336245 655.77332745 352.15625 658.90625 C351.45705444 659.6137439 350.75785889 660.32123779 350.03747559 661.0501709 C346.09164006 665.01533605 342.03899517 668.7804579 337.80267334 672.43331909 C333.65189678 676.04070721 329.78378286 679.94766897 325.875 683.8125 C325.00746094 684.65103516 324.13992188 685.48957031 323.24609375 686.35351562 C312.18029132 697.30983904 306.01158558 709.47418489 304.98296356 725.12102318 C305.01765212 733.01915987 306.58161206 740.72694119 307.95410156 748.48364258 C308.27862357 750.38481014 308.60172326 752.28622096 308.92349625 754.18785572 C309.59701585 758.15209105 310.27965009 762.11459178 310.97016907 766.07590103 C311.9550142 771.72757537 312.91752616 777.38284614 313.87390137 783.03939819 C315.63552936 793.44082429 317.42212551 803.83787167 319.21309948 814.23427939 C320.11419438 819.4676158 321.01303751 824.70133904 321.91217041 829.93501282 C323.61499531 839.84490013 325.31971532 849.75446039 327.02518106 859.66389352 C328.73844048 869.6190901 330.45001912 879.57457517 332.16117096 889.5301342 C332.91114617 893.89351107 333.66135172 898.25684824 334.41176605 902.62014961 C336.0657415 912.2378085 337.71891673 921.8555996 339.3668704 931.4742924 C340.24968306 936.62670891 341.13338247 941.778973 342.01757812 946.93115234 C342.18829236 947.92602653 342.3590066 948.92090072 342.53489399 949.94592261 C344.68426112 962.46247922 346.87297667 974.97115058 349.11420584 987.47157848 C349.91077727 991.92358095 350.69876176 996.37711294 351.48670316 1000.83064991 C352.29535054 1005.39271637 353.12868215 1009.94982943 353.96722412 1014.5065155 C358.00496157 1036.98421623 360.8203382 1059.60706711 347.07421875 1079.40625 C335.68920543 1093.64287683 321.02574994 1103.26259291 302.72265625 1105.71875 C299.07207218 1106.09585481 295.64891748 1106.36489175 292 1106 C291.00484375 1105.90460938 290.0096875 1105.80921875 288.984375 1105.7109375 C270.2755946 1102.94995008 253.35219218 1091.77615664 236.98120117 1082.90795898 C228.08771926 1078.09224488 219.12494143 1073.42582739 210.125 1068.8125 C201.48040224 1064.37855503 192.87596202 1059.89312466 184.375 1055.1875 C173.72214622 1049.29335972 162.88092391 1043.77943716 152.03936768 1038.24356079 C142.0333447 1033.13173664 132.09063663 1027.94288812 122.26171875 1022.49609375 C114.09423684 1017.99462662 105.80025893 1013.74957272 97.5 1009.5 C88.35366734 1004.81725382 79.23868607 1000.1061714 70.25 995.125 C59.64793094 989.25333929 48.8565887 983.76265626 38.0619812 978.25637817 C27.549436 972.89224482 17.09412177 967.46558066 6.8203125 961.65234375 C-7.55736632 953.60855024 -21.58143732 949.67327146 -37.8828125 953.60986328 C-49.96702021 957.05353529 -61.03489059 963.98698079 -72 970 C-72.92522461 970.50595703 -73.85044922 971.01191406 -74.80371094 971.53320312 C-78.23425896 973.41051469 -81.66413583 975.28894231 -85.08837891 977.17773438 C-94.5645603 982.37528144 -104.19636168 987.26589282 -113.81860352 992.1854248 C-122.60830569 996.68160614 -131.36277844 1001.21506036 -140 1006 C-150.15640504 1011.62655303 -160.48408419 1016.90181456 -170.82080078 1022.18652344 C-179.60976784 1026.68233946 -188.36349674 1031.21545829 -197 1036 C-207.15640504 1041.62655303 -217.48408419 1046.90181456 -227.82080078 1052.18652344 C-236.60977701 1056.68234415 -245.36336997 1061.21567369 -254 1066 C-264.9678357 1072.07280576 -276.12467681 1077.76864515 -287.28491211 1083.47705078 C-288.77591747 1084.23983348 -290.2668849 1085.00269032 -291.7578125 1085.765625 C-292.84005852 1086.31940323 -292.84005852 1086.31940323 -293.94416809 1086.8843689 C-298.88689653 1089.41795716 -303.80263811 1091.99840387 -308.70214844 1094.61474609 C-326.20243737 1103.95861158 -343.16987991 1109.24684662 -362.90600586 1103.49389648 C-379.55763916 1098.08835283 -392.94704989 1086.57927679 -401 1071 C-409.28051863 1051.8054033 -406.16660582 1031.79489095 -402.61035156 1011.79711914 C-402.24408809 1009.66157809 -401.8793745 1007.52577074 -401.5160675 1005.38972473 C-400.53296686 999.63573906 -399.5284896 993.88567632 -398.51994419 988.13610387 C-397.45174235 982.02388145 -396.40390119 975.90816728 -395.35369873 969.79283142 C-393.57925427 959.47620942 -391.7927013 949.16174636 -389.99658203 938.84887695 C-387.50952213 924.56851093 -385.0408549 910.28500707 -382.57784939 896.00047231 C-378.94254363 874.91935429 -375.29717698 853.8399886 -371.64257812 832.76220703 C-371.44146392 831.60216007 -371.24034971 830.4421131 -371.03314114 829.24691319 C-368.85209812 816.66722205 -366.66813704 804.08804453 -364.47914338 791.50973445 C-363.30493375 784.76079655 -362.13471159 778.01117586 -360.96804595 771.26092976 C-360.20982336 766.87516593 -359.44664845 762.49031045 -358.67895508 758.10619497 C-358.11802621 754.89382015 -357.56495177 751.6800925 -357.01074219 748.46655273 C-356.7213187 746.82868081 -356.7213187 746.82868081 -356.42604828 745.15772057 C-353.43846759 727.68164098 -353.18031488 712.49328096 -363 697 C-365.72076807 693.38440154 -368.81245942 690.19918456 -372 687 C-372.67240723 686.31534668 -373.34481445 685.63069336 -374.03759766 684.92529297 C-377.87208695 681.02131131 -381.72194136 677.13260244 -385.59765625 673.26953125 C-386.25258057 672.61573486 -386.90750488 671.96193848 -387.58227539 671.28833008 C-389.60283385 669.37591016 -391.65933992 667.55483932 -393.76538086 665.73901367 C-398.08853875 661.97752157 -402.12961707 657.98067266 -406.15625 653.90625 C-406.9028186 653.15589478 -407.64938721 652.40553955 -408.4185791 651.63244629 C-411.57701112 648.45783496 -414.72939279 645.27724084 -417.88232422 642.09716797 C-420.20069745 639.76059639 -422.5221552 637.42712001 -424.84375 635.09375 C-425.54294556 634.3862561 -426.24214111 633.67876221 -426.96252441 632.9498291 C-430.85238421 629.0409139 -434.85195719 625.34874956 -439.02722168 621.7479248 C-442.40188595 618.75789834 -445.55185945 615.55073516 -448.71875 612.34375 C-449.77201477 611.2848053 -449.77201477 611.2848053 -450.84655762 610.20446777 C-453.81383766 607.22102625 -456.77505363 604.2315929 -459.73681641 601.24267578 C-461.91618465 599.04509421 -464.09864947 596.85062062 -466.28125 594.65625 C-466.936698 593.99250366 -467.592146 593.32875732 -468.26745605 592.64489746 C-471.41976476 589.47617152 -474.61599534 586.42119618 -478 583.5 C-482.09847694 579.9620453 -485.91583973 576.19480725 -489.71875 572.34375 C-490.77201477 571.2848053 -490.77201477 571.2848053 -491.84655762 570.20446777 C-494.81383766 567.22102625 -497.77505363 564.2315929 -500.73681641 561.24267578 C-502.91618465 559.04509421 -505.09864947 556.85062062 -507.28125 554.65625 C-508.264422 553.66063049 -508.264422 553.66063049 -509.26745605 552.64489746 C-513.0540046 548.83862856 -516.96186558 545.25748806 -521.02526855 541.74987793 C-524.3235837 538.82712664 -527.40524737 535.69778665 -530.5 532.5625 C-531.17998047 531.87873291 -531.85996094 531.19496582 -532.56054688 530.49047852 C-535.43225143 527.60262227 -538.29788438 524.70876925 -541.1640625 521.81542969 C-543.27392787 519.68734275 -545.38689645 517.56237083 -547.5 515.4375 C-548.13357422 514.79562744 -548.76714844 514.15375488 -549.41992188 513.49243164 C-553.1659099 509.72629861 -557.03602651 506.17990536 -561.05563354 502.70837402 C-564.10200699 500.03174625 -566.99350555 497.20745362 -569.87890625 494.359375 C-570.49467026 493.75168274 -571.11043427 493.14399048 -571.74485779 492.5178833 C-573.03439114 491.24205676 -574.32247007 489.96475859 -575.60913086 488.68603516 C-576.90870735 487.39799097 -578.21274128 486.11442825 -579.52124023 484.83544922 C-593.44164906 471.22772118 -603.89354204 457.62046034 -604.29272461 437.39819336 C-604.41164963 419.96907068 -600.354965 403.93303336 -588.00390625 390.8359375 C-574.33686657 378.31447814 -559.53334638 373.5654428 -541.54083252 371.02697754 C-540.33328583 370.85093821 -539.12573915 370.67489888 -537.88160014 370.49352503 C-534.56122302 370.01085502 -531.24007393 369.53431678 -527.91843891 369.06043172 C-524.3238529 368.54603796 -520.73043642 368.02359037 -517.13687134 367.50212097 C-510.91769346 366.60071805 -504.69782144 365.70424434 -498.47745514 364.81108093 C-489.46756493 363.51729689 -480.45891122 362.21506366 -471.45055184 360.91066843 C-456.81086175 358.79102098 -442.17037733 356.67691567 -427.52929688 354.56689453 C-426.65423008 354.44078153 -425.77916328 354.31466853 -424.8775793 354.18473393 C-423.10667762 353.9295172 -421.33577585 353.67430115 -419.56487398 353.41908577 C-418.24806959 353.22931257 -418.24806959 353.22931257 -416.90466309 353.03570557 C-415.58682362 352.8457852 -415.58682362 352.8457852 -414.24236114 352.65202805 C-404.49214832 351.24679431 -394.74213202 349.84019944 -384.9921875 348.43310547 C-384.11940782 348.30714904 -383.24662813 348.18119261 -382.34740058 348.05141932 C-367.76376502 345.946635 -353.18060398 343.83857679 -338.59770846 341.72867155 C-329.61884782 340.42977628 -320.63953722 339.13407302 -311.6596081 337.84258497 C-305.49990093 336.95654685 -299.34060548 336.06768547 -293.18161729 335.17666352 C-289.63576435 334.66380079 -286.0897337 334.15226401 -282.5431633 333.64438438 C-258.2797032 331.2225061 -258.2797032 331.2225061 -235.4375 323.625 C-234.34308594 323.06039063 -233.24867188 322.49578125 -232.12109375 321.9140625 C-219.97201073 314.46343587 -214.38269085 302.3550875 -208.265625 289.95703125 C-207.54034305 288.50152231 -206.81439659 287.04634433 -206.08782959 285.59147644 C-204.18443297 281.77515113 -202.29099122 277.95396908 -200.39941406 274.1317749 C-198.88411114 271.07421353 -197.36155 268.02029725 -195.83863068 264.96652412 C-188.76081541 250.77286103 -181.7428622 236.55609078 -174.94244385 222.227005 C-168.94067347 209.61521902 -162.61080475 197.16485282 -156.33398438 184.68847656 C-150.12350413 172.33684575 -143.98871932 159.96002203 -138.05700684 147.47192383 C-132.56461605 135.93526333 -126.79871731 124.53654217 -121.05224609 113.125 C-115.30166875 101.69759554 -109.64527345 90.23504092 -104.1471405 78.68391418 C-99.4404128 68.80257956 -94.64561016 58.9664114 -89.78295898 49.16088867 C-88.79234612 47.1577882 -87.80676492 45.15219243 -86.82592773 43.14428711 C-76.27652823 21.5578452 -76.27652823 21.5578452 -69 14 C-67.96987793 12.91875854 -67.96987793 12.91875854 -66.91894531 11.81567383 C-50.31030467 -4.98102903 -21.33379606 -9.59870373 0 0 Z " fill="#F6E72E" transform="translate(625,17)"/>
<path d="M0 0 C0.13986328 1.15371094 0.27972656 2.30742187 0.42382812 3.49609375 C3.7816219 30.93865556 8.02384597 58.00167633 14 85 C14.24105469 86.09070801 14.48210937 87.18141602 14.73046875 88.30517578 C26.4426215 140.18468876 48.33044486 194.49786596 85.00390625 233.8515625 C86.82385246 235.81040872 88.53717373 237.82295875 90.25 239.875 C103.10413183 254.52341567 119.16151285 266.40335098 136.0859375 275.92333984 C137.36898847 276.64505601 138.64763263 277.37465943 139.921875 278.11181641 C172.97186171 297.17339624 211.87615537 305.44847934 249.77026367 306.23876953 C284.84124264 307.03939208 319.61120154 311.16993937 354 318 C354.70771545 318.14050781 355.41543091 318.28101563 356.14459229 318.42578125 C401.00993042 327.42245454 445.67248017 344.20000724 483 371 C483.56460938 371.4017041 484.12921875 371.8034082 484.7109375 372.21728516 C502.07896356 384.64495502 518.92552114 399.33109854 532.8671875 415.5234375 C534.54909757 417.47642465 536.24274906 419.41668465 537.9453125 421.3515625 C544.25245741 428.54034112 550.32584954 435.85018835 556.19140625 443.40234375 C588.42822832 486.49209829 588.42822832 486.49209829 636 508 C644.64888697 508.70396387 653.32593991 508.88567311 662 509 C663.4712282 511.70465898 664.33242493 514.02993838 664.80615234 517.06811523 C664.9967775 518.25732826 664.9967775 518.25732826 665.19125366 519.4705658 C665.32149933 520.32461502 665.451745 521.17866425 665.5859375 522.05859375 C665.72899323 522.95755875 665.87204895 523.85652374 666.0194397 524.7827301 C666.47754666 527.66670681 666.92687285 530.55195715 667.375 533.4375 C667.96184366 537.18688686 668.55300324 540.93556156 669.1484375 544.68359375 C669.29738464 545.62210175 669.44633179 546.56060974 669.59979248 547.52755737 C670.77634194 554.83883743 672.13477035 562.10597885 673.54891968 569.37449646 C675.37270773 578.80214706 676.86745991 588.27576699 678.35449219 597.76123047 C680.02588552 608.38717081 681.90950455 618.95344831 683.94726562 629.51513672 C685.60502632 638.11752362 687.18269044 646.73392359 688.71972656 655.35864258 C689.07502394 657.33780599 689.43575737 659.31600078 689.80175781 661.29321289 C695.52980829 692.28115204 695.52980829 692.28115204 691 706 C690.74347656 706.80695312 690.48695313 707.61390625 690.22265625 708.4453125 C686.03370092 720.20315277 677.13578435 729.96683795 666.125 735.8125 C658.04013558 739.47730837 650.48073867 741.26576558 641.625 741.4375 C640.9662085 741.45981689 640.30741699 741.48213379 639.62866211 741.50512695 C626.61677094 741.4471431 615.05203851 734.81040723 603.875 728.875 C602.40171182 728.1029535 600.92791092 727.33188467 599.45361328 726.56176758 C595.90969392 724.7076373 592.37204073 722.84196049 588.83691406 720.97113037 C586.3735547 719.66881409 583.9057925 718.37496876 581.4375 717.08203125 C578.46318194 715.52247065 575.49193239 713.95733332 572.5234375 712.38671875 C567.19366322 709.56934813 561.84645636 706.785545 556.5 704 C548.73861933 699.95518333 540.98686392 695.8928253 533.24487305 691.81103516 C523.18015108 686.50840487 513.0890457 681.25615736 503 676 C503 675.34 503 674.68 503 674 C502.34644531 673.91878906 501.69289063 673.83757813 501.01953125 673.75390625 C496.91939836 672.73019907 493.42737607 670.87261014 489.6875 668.9375 C488.57665039 668.37192383 488.57665039 668.37192383 487.44335938 667.79492188 C485.62612478 666.86871843 483.81267596 665.93509371 482 665 C482 664.34 482 663.68 482 663 C481.32582031 662.90847656 480.65164063 662.81695313 479.95703125 662.72265625 C476.24902428 661.81647225 473.05171507 660.18716901 469.6875 658.4375 C469.04232422 658.10814453 468.39714844 657.77878906 467.73242188 657.43945312 C466.15214772 656.63175745 464.57567895 655.81662387 463 655 C463 654.34 463 653.68 463 653 C462.113125 652.731875 461.22625 652.46375 460.3125 652.1875 C457 651 457 651 454.75 649.625 C450.71093729 647.23828112 446.37369178 645.67304326 442 644 C442 643.34 442 642.68 442 642 C441.195625 641.773125 440.39125 641.54625 439.5625 641.3125 C435.80716353 639.92895499 432.58332438 638.15189529 429.1484375 636.12109375 C427.08577194 635.04475736 425.27142349 634.45736808 423 634 C423 633.34 423 632.68 423 632 C422.17999512 631.75523926 421.35999023 631.51047852 420.51513672 631.25830078 C416.3914648 629.78216485 412.63466854 627.89057206 408.7578125 625.8671875 C407.98944061 625.47048859 407.22106873 625.07378967 406.42941284 624.66506958 C403.99249294 623.40575293 401.55872453 622.140479 399.125 620.875 C397.46635084 620.01653086 395.80749874 619.15845374 394.1484375 618.30078125 C390.09659524 616.20505068 386.04756729 614.10397429 382 612 C382 611.34 382 610.68 382 610 C380.8140625 609.6596875 379.628125 609.319375 378.40625 608.96875 C370.72147071 606.4071569 363.69568708 602.27902715 356.57470703 598.47021484 C344.85131064 592.21833475 334.62297913 587.90304826 321.125 587.625 C320.15046875 587.56892578 320.15046875 587.56892578 319.15625 587.51171875 C305.18178725 587.2761941 291.8569886 594.66844186 279.875 601.0625 C278.41588313 601.82846257 276.95623938 602.59342224 275.49609375 603.35742188 C266.765747 607.93930856 258.09522784 612.63053362 249.46630859 617.40063477 C240.5149219 622.32631404 231.41616419 626.95893867 222.32269287 631.61477661 C213.86186255 635.94909629 205.44272428 640.3323525 197.125 644.9375 C186.92596307 650.58254835 176.55764848 655.880457 166.17974854 661.18624878 C157.3905977 665.68215613 148.63668284 670.2153588 140 675 C130.60344851 680.2056013 121.06341713 685.11061966 111.5 690 C101.89524664 694.91058216 92.31431877 699.83825747 82.875 705.0625 C72.36514112 710.87820789 61.69122267 716.36172202 50.99926758 721.83276367 C44.98092865 724.91347831 38.96698761 727.99409741 33.015625 731.203125 C32.15928467 731.66380371 31.30294434 732.12448242 30.4206543 732.59912109 C28.92821065 733.40660743 27.43955488 734.22116888 25.95629883 735.04541016 C18.07100658 739.30589421 10.16628304 741.56441213 1.1875 741.4375 C0.41269287 741.42920166 -0.36211426 741.42090332 -1.16040039 741.41235352 C-15.09631479 741.0077671 -26.92888024 735.48793378 -36.6875 725.5625 C-47.70180932 712.64301285 -51.0911726 698.70739411 -50 682 C-49.51586414 677.7959585 -48.73059879 673.65441713 -47.89797974 669.50724792 C-45.11725092 655.57349969 -42.53912536 641.62307717 -40.31304932 627.58982658 C-37.33130882 608.82770952 -34.17159433 590.09655014 -30.96875 571.37109375 C-30.74774187 570.07847059 -30.52673374 568.78584743 -30.2990284 567.45405388 C-28.93223186 559.46149447 -27.56277507 551.46939196 -26.19256592 543.47741699 C-24.13638621 531.48405483 -22.08341874 519.49014277 -20.03125 507.49609375 C-19.81179529 506.21407829 -19.59234058 504.93206284 -19.36623573 503.61119843 C-16.27257006 485.53368583 -13.21455236 467.45070432 -10.234375 449.35411072 C-8.5270935 439.00873912 -6.70576429 428.68789287 -4.8125 418.375 C-4.55278582 416.95531719 -4.2931811 415.53561436 -4.03369141 414.1158905 C-2.12061239 403.652018 -2.12061239 403.652018 -1.35400391 399.5078125 C1.88935257 381.87610504 1.88935257 381.87610504 2 364 C1.94070313 363.15308594 1.88140625 362.30617188 1.8203125 361.43359375 C1.0706183 355.88402814 -1.17135563 351.01054495 -3.5625 346 C-3.86027344 345.3594165 -4.15804687 344.71883301 -4.46484375 344.05883789 C-10.55778391 331.99329314 -22.31387917 322.52942953 -31.76586914 313.10375977 C-34.0644721 310.81053252 -36.3576603 308.5119876 -38.65039062 306.21289062 C-40.13249187 304.73145 -41.6149032 303.2503195 -43.09765625 301.76953125 C-43.77184097 301.0933223 -44.4460257 300.41711334 -45.14064026 299.72041321 C-48.32190865 296.55454738 -51.54186375 293.49051439 -54.94311523 290.5612793 C-59.44952279 286.66803548 -63.62600542 282.48191847 -67.8125 278.25 C-68.62565674 277.43305664 -69.43881348 276.61611328 -70.27661133 275.77441406 C-73.7217734 272.31304958 -77.1609029 268.84571409 -80.60058594 265.37890625 C-83.12746508 262.83384812 -85.65741315 260.29186869 -88.1875 257.75 C-88.95231689 256.97688477 -89.71713379 256.20376953 -90.50512695 255.40722656 C-93.91187822 251.98515145 -97.3404702 248.65179989 -101 245.5 C-105.49161733 241.63155795 -109.64532361 237.46239067 -113.8125 233.25 C-115.03223511 232.02458496 -115.03223511 232.02458496 -116.27661133 230.77441406 C-119.7217734 227.31304958 -123.1609029 223.84571409 -126.60058594 220.37890625 C-129.12746508 217.83384812 -131.65741315 215.29186869 -134.1875 212.75 C-134.95231689 211.97688477 -135.71713379 211.20376953 -136.50512695 210.40722656 C-140.54749421 206.34667641 -144.68278081 202.48991246 -149.0234375 198.75170898 C-152.55277987 195.62386418 -155.84255407 192.25927424 -159.15625 188.90625 C-159.9028186 188.15589478 -160.64938721 187.40553955 -161.4185791 186.63244629 C-164.57701112 183.45783496 -167.72939279 180.27724084 -170.88232422 177.09716797 C-173.20069745 174.76059639 -175.5221552 172.42712001 -177.84375 170.09375 C-178.54294556 169.3862561 -179.24214111 168.67876221 -179.96252441 167.9498291 C-183.85238421 164.0409139 -187.85195719 160.34874956 -192.02722168 156.7479248 C-195.40188595 153.75789834 -198.55185945 150.55073516 -201.71875 147.34375 C-202.42092651 146.63778687 -203.12310303 145.93182373 -203.84655762 145.20446777 C-206.81383766 142.22102625 -209.77505363 139.2315929 -212.73681641 136.24267578 C-214.91618465 134.04509421 -217.09864947 131.85062062 -219.28125 129.65625 C-219.936698 128.99250366 -220.592146 128.32875732 -221.26745605 127.64489746 C-225.14193961 123.75023558 -229.13067407 120.06460295 -233.31269836 116.50126648 C-240.67033158 109.95485659 -247.37592225 97.70585386 -248.17700195 87.81445312 C-248.62910004 69.12533068 -246.35491553 57.06479479 -233.4375 42.875 C-222.08074856 31.98224035 -208.09876906 27.98234604 -192.91577148 26.16503906 C-190.21548646 25.82310615 -187.51547078 25.47940412 -184.81564331 25.13391113 C-184.10571914 25.04393506 -183.39579498 24.95395898 -182.66435796 24.86125636 C-174.1607415 23.77847595 -165.67689135 22.55985492 -157.19165039 21.34277344 C-155.51655362 21.10326797 -153.84144583 20.86383949 -152.16632748 20.62448502 C-148.6921015 20.12779929 -145.21798587 19.63035053 -141.74394417 19.13237762 C-136.21611386 18.3401832 -130.68786112 17.55096347 -125.15953064 16.76226807 C-109.46739991 14.52324427 -93.77552084 12.28248398 -78.0847168 10.03417969 C-69.35868566 8.78386855 -60.63216591 7.53702951 -51.90507883 6.29410958 C-47.31008984 5.63953308 -42.71537362 4.98316006 -38.1212635 4.3224411 C-33.82302835 3.70427873 -29.52417175 3.09064051 -25.2247963 2.48046112 C-23.65199706 2.25641713 -22.07943443 2.03070464 -20.50713539 1.80317688 C-18.357308 1.49232474 -16.20670087 1.18754811 -14.05580139 0.88421631 C-12.85495439 0.71242733 -11.65410738 0.54063835 -10.41687107 0.36364365 C-6.9180069 -0.00872619 -3.51585226 -0.0635167 0 0 Z " fill="#F7EB65" transform="translate(279,371)"/>
<path d="M0 0 C0.92425781 0.40089844 1.84851563 0.80179688 2.80078125 1.21484375 C19.66422695 9.44382362 28.17126312 23.82367757 36.203125 40.078125 C36.76642517 41.20659851 37.32972534 42.33507202 37.91009521 43.4977417 C39.09606975 45.87637313 40.27979574 48.2559517 41.45947266 50.63769531 C43.22497595 54.20212899 45.00082507 57.76135505 46.77734375 61.3203125 C52.59321842 72.99225812 58.3155828 84.70262557 63.9130249 96.48077393 C69.27743914 107.73570743 74.89554861 118.86323543 80.5 130 C87.07138325 143.05818234 93.57718736 156.13599641 99.84936523 169.34082031 C105.23295101 180.64354699 110.87244987 191.81733525 116.5 203 C123.07390754 216.06319843 129.58397539 229.14568791 135.86076355 242.35455322 C140.69831361 252.5126199 145.71435683 262.5797364 150.75415039 272.63867188 C152.33196421 275.78886134 153.90540408 278.94121016 155.47851562 282.09375 C156.50234727 284.14075351 157.52642661 286.18763315 158.55078125 288.234375 C159.01027664 289.15539001 159.46977203 290.07640503 159.94319153 291.02532959 C169.06214784 309.19858122 177.09147791 321.05869733 197 328 C201.03972741 328.98418658 205.08536333 329.59746386 209.20343018 330.15545654 C210.35507267 330.32466126 211.50671515 330.49386598 212.6932559 330.66819811 C216.46960732 331.21930585 220.24873962 331.74790229 224.02832031 332.27636719 C226.71493213 332.6621103 229.40083134 333.05271251 232.08675003 333.44324875 C237.64968829 334.24979938 243.2140452 335.04574879 248.77967834 335.83348083 C256.46668771 336.92161641 264.15042407 338.03161699 271.83337402 339.14807129 C282.87859149 340.75085525 293.92581476 342.33921952 304.97412705 343.92051864 C314.26847812 345.25097766 323.56209563 346.58644912 332.85528564 347.92498779 C334.24395774 348.12498211 335.63262985 348.32497627 337.02130198 348.52497029 C339.82209422 348.92835462 342.62288181 349.33177114 345.42366648 349.73520803 C352.4838947 350.75218413 359.54414806 351.76898511 366.60449219 352.78515625 C367.30803759 352.88641732 368.011583 352.98767838 368.73644796 353.09200796 C380.25719045 354.74991954 391.77912059 356.39944746 403.30142698 358.04645029 C415.27390486 359.75803189 427.24489973 361.47972058 439.21463132 363.21040416 C445.87997863 364.17382507 452.5459537 365.13231076 459.21364594 366.07938385 C465.44421506 366.96444098 471.67287557 367.86188973 477.90032196 368.76865005 C480.16991941 369.09691585 482.44016452 369.4207423 484.71110535 369.73958206 C507.96201535 373.00917771 527.03028301 377.50472074 543 396 C545.30959007 399.20563435 547.2297558 402.4709695 549 406 C549.38800781 406.7734375 549.77601562 407.546875 550.17578125 408.34375 C556.40402609 421.57027723 557.43509175 438.11251527 553.375 452.1875 C547.44421106 468.05804323 536.41024521 478.76389278 524.65209961 490.47827148 C522.9329133 492.19207233 521.21917417 493.91119082 519.50585938 495.63085938 C518.38834145 496.74771673 517.27051348 497.86426397 516.15234375 498.98046875 C515.65314926 499.48168747 515.15395477 499.98290619 514.63963318 500.49931335 C511.87839217 503.24282341 509.04487323 505.85401775 506.09790039 508.39770508 C501.97197805 511.97497519 498.11684671 515.77209248 494.28125 519.65625 C493.22798523 520.7151947 493.22798523 520.7151947 492.15344238 521.79553223 C489.93315397 524.02791358 487.71616045 526.26352111 485.5 528.5 C482.57590521 531.45090378 479.64836943 534.39833203 476.71875 537.34375 C476.063302 538.00749634 475.407854 538.67124268 474.73254395 539.35510254 C470.95033123 543.15701303 467.04683553 546.73309695 462.98815918 550.23669434 C459.60949215 553.23324651 456.45330837 556.44403159 453.28125 559.65625 C452.22798523 560.7151947 452.22798523 560.7151947 451.15344238 561.79553223 C448.93315397 564.02791358 446.71616045 566.26352111 444.5 568.5 C441.57590521 571.45090378 438.64836943 574.39833203 435.71875 577.34375 C435.063302 578.00749634 434.407854 578.67124268 433.73254395 579.35510254 C429.95033123 583.15701303 426.04683553 586.73309695 421.98815918 590.23669434 C418.60949215 593.23324651 415.45330837 596.44403159 412.28125 599.65625 C411.57907349 600.36221313 410.87689697 601.06817627 410.15344238 601.79553223 C407.93315397 604.02791358 405.71616045 606.26352111 403.5 608.5 C400.57590521 611.45090378 397.64836943 614.39833203 394.71875 617.34375 C394.063302 618.00749634 393.407854 618.67124268 392.73254395 619.35510254 C389.58920073 622.51481629 386.40308127 625.56135823 383.02734375 628.47265625 C378.76366284 632.15336253 374.80152703 636.08900045 370.84375 640.09375 C370.0971814 640.84410522 369.35061279 641.59446045 368.5814209 642.36755371 C366.21847975 644.7425992 363.8588263 647.12086817 361.5 649.5 C358.38839354 652.63839217 355.27336245 655.77332745 352.15625 658.90625 C351.45705444 659.6137439 350.75785889 660.32123779 350.03747559 661.0501709 C346.09164006 665.01533605 342.03899517 668.7804579 337.80267334 672.43331909 C333.65189678 676.04070721 329.78378286 679.94766897 325.875 683.8125 C325.00746094 684.65103516 324.13992188 685.48957031 323.24609375 686.35351562 C312.18029132 697.30983904 306.01158558 709.47418489 304.98296356 725.12102318 C305.01765212 733.01915987 306.58161206 740.72694119 307.95410156 748.48364258 C308.27862357 750.38481014 308.60172326 752.28622096 308.92349625 754.18785572 C309.59701585 758.15209105 310.27965009 762.11459178 310.97016907 766.07590103 C311.9550142 771.72757537 312.91752616 777.38284614 313.87390137 783.03939819 C315.63552936 793.44082429 317.42212551 803.83787167 319.21309948 814.23427939 C320.11419438 819.4676158 321.01303751 824.70133904 321.91217041 829.93501282 C323.61499531 839.84490013 325.31971532 849.75446039 327.02518106 859.66389352 C328.73844048 869.6190901 330.45001912 879.57457517 332.16117096 889.5301342 C332.91114617 893.89351107 333.66135172 898.25684824 334.41176605 902.62014961 C336.0657415 912.2378085 337.71891673 921.8555996 339.3668704 931.4742924 C340.24968306 936.62670891 341.13338247 941.778973 342.01757812 946.93115234 C342.18829236 947.92602653 342.3590066 948.92090072 342.53489399 949.94592261 C344.68426112 962.46247922 346.87297667 974.97115058 349.11420584 987.47157848 C349.91077727 991.92358095 350.69876176 996.37711294 351.48670316 1000.83064991 C352.29535054 1005.39271637 353.12868215 1009.94982943 353.96722412 1014.5065155 C358.00496157 1036.98421623 360.8203382 1059.60706711 347.07421875 1079.40625 C335.68920543 1093.64287683 321.02574994 1103.26259291 302.72265625 1105.71875 C299.07207218 1106.09585481 295.64891748 1106.36489175 292 1106 C291.00484375 1105.90460938 290.0096875 1105.80921875 288.984375 1105.7109375 C270.2755946 1102.94995008 253.35219218 1091.77615664 236.98120117 1082.90795898 C228.08771926 1078.09224488 219.12494143 1073.42582739 210.125 1068.8125 C201.48040224 1064.37855503 192.87596202 1059.89312466 184.375 1055.1875 C173.72214622 1049.29335972 162.88092391 1043.77943716 152.03936768 1038.24356079 C142.0333447 1033.13173664 132.09063663 1027.94288812 122.26171875 1022.49609375 C114.09423684 1017.99462662 105.80025893 1013.74957272 97.5 1009.5 C88.35366734 1004.81725382 79.23868607 1000.1061714 70.25 995.125 C59.64793094 989.25333929 48.8565887 983.76265626 38.0619812 978.25637817 C27.549436 972.89224482 17.09412177 967.46558066 6.8203125 961.65234375 C-7.55736632 953.60855024 -21.58143732 949.67327146 -37.8828125 953.60986328 C-49.96702021 957.05353529 -61.03489059 963.98698079 -72 970 C-72.92522461 970.50595703 -73.85044922 971.01191406 -74.80371094 971.53320312 C-78.23425896 973.41051469 -81.66413583 975.28894231 -85.08837891 977.17773438 C-94.5645603 982.37528144 -104.19636168 987.26589282 -113.81860352 992.1854248 C-122.60830569 996.68160614 -131.36277844 1001.21506036 -140 1006 C-150.15640504 1011.62655303 -160.48408419 1016.90181456 -170.82080078 1022.18652344 C-179.60976784 1026.68233946 -188.36349674 1031.21545829 -197 1036 C-207.15640504 1041.62655303 -217.48408419 1046.90181456 -227.82080078 1052.18652344 C-236.60977701 1056.68234415 -245.36336997 1061.21567369 -254 1066 C-264.9678357 1072.07280576 -276.12467681 1077.76864515 -287.28491211 1083.47705078 C-288.77591747 1084.23983348 -290.2668849 1085.00269032 -291.7578125 1085.765625 C-292.84005852 1086.31940323 -292.84005852 1086.31940323 -293.94416809 1086.8843689 C-298.88689653 1089.41795716 -303.80263811 1091.99840387 -308.70214844 1094.61474609 C-326.20243737 1103.95861158 -343.16987991 1109.24684662 -362.90600586 1103.49389648 C-379.55763916 1098.08835283 -392.94704989 1086.57927679 -401 1071 C-409.28051863 1051.8054033 -406.16660582 1031.79489095 -402.61035156 1011.79711914 C-402.24408809 1009.66157809 -401.8793745 1007.52577074 -401.5160675 1005.38972473 C-400.53296686 999.63573906 -399.5284896 993.88567632 -398.51994419 988.13610387 C-397.45174235 982.02388145 -396.40390119 975.90816728 -395.35369873 969.79283142 C-393.57925427 959.47620942 -391.7927013 949.16174636 -389.99658203 938.84887695 C-387.50952213 924.56851093 -385.0408549 910.28500707 -382.57784939 896.00047231 C-378.94254363 874.91935429 -375.29717698 853.8399886 -371.64257812 832.76220703 C-371.44146392 831.60216007 -371.24034971 830.4421131 -371.03314114 829.24691319 C-368.85209812 816.66722205 -366.66813704 804.08804453 -364.47914338 791.50973445 C-363.30493375 784.76079655 -362.13471159 778.01117586 -360.96804595 771.26092976 C-360.20982336 766.87516593 -359.44664845 762.49031045 -358.67895508 758.10619497 C-358.11802621 754.89382015 -357.56495177 751.6800925 -357.01074219 748.46655273 C-356.7213187 746.82868081 -356.7213187 746.82868081 -356.42604828 745.15772057 C-353.43846759 727.68164098 -353.18031488 712.49328096 -363 697 C-365.72076807 693.38440154 -368.81245942 690.19918456 -372 687 C-372.67240723 686.31534668 -373.34481445 685.63069336 -374.03759766 684.92529297 C-377.87208695 681.02131131 -381.72194136 677.13260244 -385.59765625 673.26953125 C-386.25258057 672.61573486 -386.90750488 671.96193848 -387.58227539 671.28833008 C-389.60283385 669.37591016 -391.65933992 667.55483932 -393.76538086 665.73901367 C-398.08853875 661.97752157 -402.12961707 657.98067266 -406.15625 653.90625 C-406.9028186 653.15589478 -407.64938721 652.40553955 -408.4185791 651.63244629 C-411.57701112 648.45783496 -414.72939279 645.27724084 -417.88232422 642.09716797 C-420.20069745 639.76059639 -422.5221552 637.42712001 -424.84375 635.09375 C-425.54294556 634.3862561 -426.24214111 633.67876221 -426.96252441 632.9498291 C-430.85238421 629.0409139 -434.85195719 625.34874956 -439.02722168 621.7479248 C-442.40188595 618.75789834 -445.55185945 615.55073516 -448.71875 612.34375 C-449.77201477 611.2848053 -449.77201477 611.2848053 -450.84655762 610.20446777 C-453.81383766 607.22102625 -456.77505363 604.2315929 -459.73681641 601.24267578 C-461.91618465 599.04509421 -464.09864947 596.85062062 -466.28125 594.65625 C-466.936698 593.99250366 -467.592146 593.32875732 -468.26745605 592.64489746 C-471.41976476 589.47617152 -474.61599534 586.42119618 -478 583.5 C-482.09847694 579.9620453 -485.91583973 576.19480725 -489.71875 572.34375 C-490.77201477 571.2848053 -490.77201477 571.2848053 -491.84655762 570.20446777 C-494.81383766 567.22102625 -497.77505363 564.2315929 -500.73681641 561.24267578 C-502.91618465 559.04509421 -505.09864947 556.85062062 -507.28125 554.65625 C-508.264422 553.66063049 -508.264422 553.66063049 -509.26745605 552.64489746 C-513.0540046 548.83862856 -516.96186558 545.25748806 -521.02526855 541.74987793 C-524.3235837 538.82712664 -527.40524737 535.69778665 -530.5 532.5625 C-531.17998047 531.87873291 -531.85996094 531.19496582 -532.56054688 530.49047852 C-535.43225143 527.60262227 -538.29788438 524.70876925 -541.1640625 521.81542969 C-543.27392787 519.68734275 -545.38689645 517.56237083 -547.5 515.4375 C-548.13357422 514.79562744 -548.76714844 514.15375488 -549.41992188 513.49243164 C-553.1659099 509.72629861 -557.03602651 506.17990536 -561.05563354 502.70837402 C-564.10200699 500.03174625 -566.99350555 497.20745362 -569.87890625 494.359375 C-570.49467026 493.75168274 -571.11043427 493.14399048 -571.74485779 492.5178833 C-573.03439114 491.24205676 -574.32247007 489.96475859 -575.60913086 488.68603516 C-576.90870735 487.39799097 -578.21274128 486.11442825 -579.52124023 484.83544922 C-593.44164906 471.22772118 -603.89354204 457.62046034 -604.29272461 437.39819336 C-604.41164963 419.96907068 -600.354965 403.93303336 -588.00390625 390.8359375 C-574.33686657 378.31447814 -559.53334638 373.5654428 -541.54083252 371.02697754 C-540.33328583 370.85093821 -539.12573915 370.67489888 -537.88160014 370.49352503 C-534.56122302 370.01085502 -531.24007393 369.53431678 -527.91843891 369.06043172 C-524.3238529 368.54603796 -520.73043642 368.02359037 -517.13687134 367.50212097 C-510.91769346 366.60071805 -504.69782144 365.70424434 -498.47745514 364.81108093 C-489.46756493 363.51729689 -480.45891122 362.21506366 -471.45055184 360.91066843 C-456.81086175 358.79102098 -442.17037733 356.67691567 -427.52929688 354.56689453 C-426.65423008 354.44078153 -425.77916328 354.31466853 -424.8775793 354.18473393 C-423.10667762 353.9295172 -421.33577585 353.67430115 -419.56487398 353.41908577 C-418.24806959 353.22931257 -418.24806959 353.22931257 -416.90466309 353.03570557 C-415.58682362 352.8457852 -415.58682362 352.8457852 -414.24236114 352.65202805 C-404.49214832 351.24679431 -394.74213202 349.84019944 -384.9921875 348.43310547 C-384.11940782 348.30714904 -383.24662813 348.18119261 -382.34740058 348.05141932 C-367.76376502 345.946635 -353.18060398 343.83857679 -338.59770846 341.72867155 C-329.61884782 340.42977628 -320.63953722 339.13407302 -311.6596081 337.84258497 C-305.49990093 336.95654685 -299.34060548 336.06768547 -293.18161729 335.17666352 C-289.63576435 334.66380079 -286.0897337 334.15226401 -282.5431633 333.64438438 C-258.2797032 331.2225061 -258.2797032 331.2225061 -235.4375 323.625 C-234.34308594 323.06039063 -233.24867188 322.49578125 -232.12109375 321.9140625 C-219.97201073 314.46343587 -214.38269085 302.3550875 -208.265625 289.95703125 C-207.54034305 288.50152231 -206.81439659 287.04634433 -206.08782959 285.59147644 C-204.18443297 281.77515113 -202.29099122 277.95396908 -200.39941406 274.1317749 C-198.88411114 271.07421353 -197.36155 268.02029725 -195.83863068 264.96652412 C-188.76081541 250.77286103 -181.7428622 236.55609078 -174.94244385 222.227005 C-168.94067347 209.61521902 -162.61080475 197.16485282 -156.33398438 184.68847656 C-150.12350413 172.33684575 -143.98871932 159.96002203 -138.05700684 147.47192383 C-132.56461605 135.93526333 -126.79871731 124.53654217 -121.05224609 113.125 C-115.30166875 101.69759554 -109.64527345 90.23504092 -104.1471405 78.68391418 C-99.4404128 68.80257956 -94.64561016 58.9664114 -89.78295898 49.16088867 C-88.79234612 47.1577882 -87.80676492 45.15219243 -86.82592773 43.14428711 C-76.27652823 21.5578452 -76.27652823 21.5578452 -69 14 C-67.96987793 12.91875854 -67.96987793 12.91875854 -66.91894531 11.81567383 C-50.31030467 -4.98102903 -21.33379606 -9.59870373 0 0 Z M-46 10 C-46.83660156 10.4125 -47.67320312 10.825 -48.53515625 11.25 C-62.94270851 19.08842101 -68.97758512 30.6318441 -75.94238281 44.82617188 C-78.42322044 49.87603813 -80.96059275 54.89732135 -83.4921875 59.921875 C-95.13648747 83.06312856 -95.13648747 83.06312856 -106.43359375 106.375 C-112.7874762 119.73885258 -119.44171308 132.94853436 -126.09326172 146.16601562 C-132.14201911 158.19295847 -138.10684515 170.24876232 -143.88342285 182.40893555 C-149.58008432 194.37013081 -155.56377679 206.18738704 -161.52050781 218.02050781 C-167.39853744 229.70474548 -173.19074472 241.41998843 -178.81025696 253.23088074 C-183.80419582 263.71603003 -188.9088145 274.14508823 -194.0715332 284.5480957 C-195.15915822 286.74520011 -196.24175294 288.94480104 -197.31958008 291.14672852 C-198.91358618 294.40192472 -200.5234204 297.64886149 -202.13671875 300.89453125 C-202.60776535 301.86445511 -203.07881195 302.83437897 -203.56413269 303.83369446 C-211.28208895 319.22349791 -222.02492708 329.53851589 -238 336 C-251.60869295 340.37418474 -265.88592771 341.8601744 -279.99609375 343.75 C-282.52776434 344.09605779 -285.05929159 344.44316556 -287.59068298 344.79125977 C-291.50856882 345.32983069 -295.42653641 345.86771478 -299.34496021 346.40235901 C-311.31569844 348.03571851 -323.27697325 349.73195197 -335.23629761 351.44664192 C-338.69337217 351.94226197 -342.15061586 352.43668608 -345.60791016 352.93077087 C-351.53527847 353.77795633 -357.46251483 354.62606091 -363.3897171 355.4744072 C-369.71791074 356.38000198 -376.04621506 357.28482273 -382.37451172 358.18969727 C-393.21628701 359.73997584 -393.21628701 359.73997584 -404.05801272 361.29060107 C-422.10375883 363.87188113 -440.15001948 366.44953557 -458.19669151 369.02433395 C-465.94974803 370.13051389 -473.70274348 371.23712188 -481.45575047 372.34364891 C-487.62077183 373.22349472 -493.78582741 374.10309934 -499.95095825 374.98217773 C-505.70484357 375.80262806 -511.45863376 376.62374235 -517.21235466 377.44534492 C-519.3100116 377.74475599 -521.40770347 378.04392252 -523.50543404 378.34281731 C-528.91807694 379.11409098 -534.3299744 379.89013866 -539.74069977 380.6747551 C-541.82700847 380.97509644 -543.91424921 381.26773338 -546.00189209 381.55862427 C-547.14386047 381.72305023 -548.28582886 381.8874762 -549.46240234 382.05688477 C-550.40240082 382.18917984 -551.34239929 382.32147491 -552.31088257 382.45777893 C-566.07413106 385.23293602 -579.15410722 394.35222961 -586.98046875 405.9296875 C-594.45199645 418.28466733 -596.27869888 431.8828461 -593.59716797 446.14208984 C-590.16610813 458.7864865 -581.11809266 469.78636258 -571.33740234 478.16748047 C-567.13725152 481.82831485 -563.19472401 485.69322921 -559.28125 489.65625 C-558.57907349 490.36221313 -557.87689697 491.06817627 -557.15344238 491.79553223 C-554.18616234 494.77897375 -551.22494637 497.7684071 -548.26318359 500.75732422 C-546.08381535 502.95490579 -543.90135053 505.14937938 -541.71875 507.34375 C-541.063302 508.00749634 -540.407854 508.67124268 -539.73254395 509.35510254 C-536.58920073 512.51481629 -533.40308127 515.56135823 -530.02734375 518.47265625 C-525.76366284 522.15336253 -521.80152703 526.08900045 -517.84375 530.09375 C-516.72389709 531.21928284 -516.72389709 531.21928284 -515.5814209 532.36755371 C-512.42298888 535.54216504 -509.27060721 538.72275916 -506.11767578 541.90283203 C-503.79930255 544.23940361 -501.4778448 546.57287999 -499.15625 548.90625 C-498.45705444 549.6137439 -497.75785889 550.32123779 -497.03747559 551.0501709 C-493.79676684 554.30675504 -490.52289088 557.46036939 -487.04101562 560.45898438 C-482.53755482 564.34322962 -478.36826594 568.52387233 -474.1875 572.75 C-473.37434326 573.56694336 -472.56118652 574.38388672 -471.72338867 575.22558594 C-468.2782266 578.68695042 -464.8390971 582.15428591 -461.39941406 585.62109375 C-458.87253492 588.16615188 -456.34258685 590.70813131 -453.8125 593.25 C-453.04768311 594.02311523 -452.28286621 594.79623047 -451.49487305 595.59277344 C-448.08812178 599.01484855 -444.6595298 602.34820011 -441 605.5 C-436.50838267 609.36844205 -432.35467639 613.53760933 -428.1875 617.75 C-427.37434326 618.56694336 -426.56118652 619.38388672 -425.72338867 620.22558594 C-422.2782266 623.68695042 -418.8390971 627.15428591 -415.39941406 630.62109375 C-412.87253492 633.16615188 -410.34258685 635.70813131 -407.8125 638.25 C-407.04768311 639.02311523 -406.28286621 639.79623047 -405.49487305 640.59277344 C-401.45120685 644.65462837 -397.31865684 648.52397601 -392.9765625 652.2638855 C-387.03804908 657.47998126 -381.49781714 663.15457288 -375.88232422 668.71264648 C-374.30036101 670.27304779 -372.71216847 671.82716001 -371.11767578 673.37475586 C-356.0273501 688.02711609 -344.10020382 702.55119378 -343.72265625 724.55078125 C-343.70966306 732.54837029 -344.94532563 740.25568489 -346.35198975 748.11108398 C-346.52826086 749.0979891 -346.70453197 750.08489422 -346.88614464 751.10170555 C-347.06809191 752.12001772 -347.25003918 753.13832989 -347.4375 754.1875 C-350.29843857 770.30009591 -353.1291315 786.41774082 -355.91796875 802.54296875 C-356.1935153 804.13527376 -356.1935153 804.13527376 -356.47462845 805.75974655 C-362.20116219 838.86389386 -367.84814042 871.98174201 -373.50393564 905.09803063 C-374.73420426 912.30134084 -375.96516386 919.50453285 -377.19629276 926.70769608 C-378.55017741 934.6291564 -379.90364071 942.55068866 -381.25690079 950.47225571 C-381.82367607 953.78995776 -382.39058427 957.10763706 -382.95760727 960.42529678 C-383.74673585 965.04273671 -384.53542657 969.66025124 -385.32373047 974.27783203 C-385.44592394 974.9934828 -385.56811741 975.70913358 -385.69401371 976.44647074 C-387.29287527 985.81361386 -388.87543274 995.18317788 -390.41514587 1004.5602417 C-391.02662164 1008.15657237 -391.69670758 1011.73828205 -392.38671875 1015.3203125 C-396.56282696 1037.01058647 -398.92498148 1054.50843453 -387 1074 C-378.89881492 1085.24401771 -367.66801332 1092.53216426 -354 1095 C-350.97646753 1095.31518119 -347.97635884 1095.44916585 -344.9375 1095.5 C-344.23036865 1095.51861084 -343.5232373 1095.53722168 -342.79467773 1095.55639648 C-329.83816813 1095.40431438 -318.28996275 1088.3619728 -307.125 1082.5 C-305.55251634 1081.68250404 -303.9797594 1080.86553357 -302.40673828 1080.04907227 C-293.33157392 1075.32677092 -284.31688153 1070.50253426 -275.36572266 1065.54882812 C-266.44884216 1060.63774156 -257.38244359 1056.02377563 -248.32214355 1051.38494873 C-239.86149711 1047.05072032 -231.44254462 1042.66754803 -223.125 1038.0625 C-212.92661703 1032.41781361 -202.55895505 1027.12028982 -192.1817627 1021.8147583 C-182.49678627 1016.86049472 -172.88137786 1011.81661434 -163.36328125 1006.546875 C-154.44639713 1001.63788148 -145.3815638 997.02332518 -136.32214355 992.38494873 C-127.86149137 988.05071738 -119.44262765 983.66740656 -111.125 979.0625 C-100.14932859 972.98982925 -88.98838732 967.28560514 -77.81884766 961.58032227 C-76.39353882 960.85175631 -74.96824573 960.12315954 -73.54296875 959.39453125 C-72.84379333 959.03770264 -72.14461792 958.68087402 -71.42425537 958.31323242 C-67.72766783 956.42065445 -64.04886727 954.49990936 -60.38916016 952.53686523 C-59.63113602 952.13090622 -58.87311188 951.7249472 -58.09211731 951.3066864 C-56.65422634 950.53426384 -55.21841892 949.757944 -53.78520203 948.97688293 C-40.75695491 941.97660238 -25.6270452 939.32172556 -11.17236328 943.33007812 C-1.62684764 946.27376153 6.96280756 950.39791248 15.75 955.125 C18.09500915 956.38543443 20.44429973 957.63639748 22.796875 958.8828125 C23.82135742 959.43340332 24.84583984 959.98399414 25.90136719 960.55126953 C29.25609796 962.11973568 32.42178141 963.07428892 36 964 C36 964.66 36 965.32 36 966 C41.51492992 968.85346587 47.03253977 971.70165416 52.55273438 974.54492188 C54.43141656 975.5135158 56.30934965 976.48356408 58.18652344 977.45507812 C60.88021759 978.84885863 63.57653619 980.23743759 66.2734375 981.625 C67.11619232 982.06247559 67.95894714 982.49995117 68.82723999 982.95068359 C69.99822739 983.55130615 69.99822739 983.55130615 71.19287109 984.1640625 C71.88126068 984.51936035 72.56965027 984.8746582 73.27890015 985.24072266 C74.99145136 986.13454208 74.99145136 986.13454208 77 986 C77 986.66 77 987.32 77 988 C78.423125 988.5878125 78.423125 988.5878125 79.875 989.1875 C83.97392013 990.93100795 87.91140763 992.96013352 91.86328125 995.01171875 C93.91017272 996.13993153 93.91017272 996.13993153 96 996 C96 996.66 96 997.32 96 998 C96.70125 998.31453125 97.4025 998.6290625 98.125 998.953125 C102.64862266 1000.99367218 107.14785827 1003.04420342 111.5625 1005.3125 C114.66099447 1007.14689106 114.66099447 1007.14689106 117 1007 C117 1007.66 117 1008.32 117 1009 C119.41141481 1010.34367392 121.82833988 1011.67502515 124.25 1013 C124.93191406 1013.3815625 125.61382813 1013.763125 126.31640625 1014.15625 C126.98027344 1014.5171875 127.64414062 1014.878125 128.328125 1015.25 C128.9355957 1015.58515625 129.54306641 1015.9203125 130.16894531 1016.265625 C132.2899512 1017.24816265 132.2899512 1017.24816265 136 1017 C136 1017.66 136 1018.32 136 1019 C138.93257033 1020.50978518 141.87180894 1022.00610203 144.8125 1023.5 C145.64587891 1023.92925781 146.47925781 1024.35851563 147.33789062 1024.80078125 C148.14033203 1025.20683594 148.94277344 1025.61289063 149.76953125 1026.03125 C150.50792236 1026.40830078 151.24631348 1026.78535156 152.00708008 1027.17382812 C154.10232085 1028.19147572 154.10232085 1028.19147572 157 1028 C157 1028.66 157 1029.32 157 1030 C158.14251221 1030.58378418 159.28502441 1031.16756836 160.4621582 1031.76904297 C164.79982386 1033.98582861 169.13670911 1036.20413754 173.47338867 1038.42285156 C175.33190807 1039.37344692 177.19062445 1040.32365729 179.04956055 1041.2734375 C191.0724055 1047.41663947 203.05310616 1053.63254012 214.99057007 1059.94000244 C219.48464461 1062.31067881 223.99300112 1064.65402343 228.5 1067 C235.63149345 1070.7168936 242.75791266 1074.44309515 249.875 1078.1875 C250.64263672 1078.58976807 251.41027344 1078.99203613 252.20117188 1079.40649414 C256.01156538 1081.40711315 259.80323917 1083.43445815 263.5703125 1085.515625 C279.12166657 1094.06700263 293.72197456 1097.93311131 311.375 1093.4375 C325.72348156 1088.747916 336.18841794 1079.3464436 343 1066 C349.61542104 1051.65797392 347.44934796 1035.07057352 344.69921875 1020.03515625 C344.45860174 1018.66406073 344.21919495 1017.29275235 343.98091125 1015.92124939 C343.35777411 1012.35340523 342.71862975 1008.78862434 342.07568359 1005.2243042 C341.43187199 1001.6389012 340.80351592 998.05079597 340.17382812 994.46289062 C338.99432952 987.75549556 337.79991068 981.05088118 336.5993042 974.347229 C334.00658641 959.8664024 331.51735234 945.36871959 329.05224609 930.86572266 C328.6081688 928.25415988 328.16346717 925.64270388 327.71875 923.03125 C327.59052856 922.27549683 327.46230713 921.51974365 327.3302002 920.74108887 C326.57577817 916.31139717 325.80422708 911.88501232 325.01999664 907.460495 C323.11993388 896.73942666 321.27721749 886.00878948 319.440979 875.27662659 C318.86064079 871.88482731 318.27974996 868.49312306 317.69873047 865.10144043 C316.25696607 856.684531 314.81611789 848.26746477 313.37524414 839.85040283 C312.1529167 832.71022473 310.93023203 825.57010797 309.70709229 818.43006897 C309.14015494 815.11973923 308.57372664 811.80932267 308.00732422 808.49890137 C306.23188516 798.13003791 304.44100898 787.76449618 302.59706116 777.40757751 C301.81910427 772.96758276 301.11488036 768.51874111 300.4375 764.0625 C299.6861679 759.21041196 298.92436738 754.3734785 297.9375 749.5625 C297.78410156 748.81226563 297.63070312 748.06203125 297.47265625 747.2890625 C297.13151737 745.63693537 296.78442083 743.98603451 296.43359375 742.3359375 C292.74647462 723.20417248 295.18194532 706.56707803 306 690 C310.14034358 684.7857337 314.63929722 680.14437642 319.68774414 675.81396484 C323.87830522 672.15861914 327.81286811 668.29908255 331.71875 664.34375 C332.42092651 663.63778687 333.12310303 662.93182373 333.84655762 662.20446777 C336.06684603 659.97208642 338.28383955 657.73647889 340.5 655.5 C343.42409479 652.54909622 346.35163057 649.60166797 349.28125 646.65625 C349.936698 645.99250366 350.592146 645.32875732 351.26745605 644.64489746 C355.04966877 640.84298697 358.95316447 637.26690305 363.01184082 633.76330566 C366.39050785 630.76675349 369.54669163 627.55596841 372.71875 624.34375 C373.42092651 623.63778687 374.12310303 622.93182373 374.84655762 622.20446777 C377.06684603 619.97208642 379.28383955 617.73647889 381.5 615.5 C384.42409479 612.54909622 387.35163057 609.60166797 390.28125 606.65625 C390.936698 605.99250366 391.592146 605.32875732 392.26745605 604.64489746 C396.04966877 600.84298697 399.95316447 597.26690305 404.01184082 593.76330566 C407.39050785 590.76675349 410.54669163 587.55596841 413.71875 584.34375 C414.42092651 583.63778687 415.12310303 582.93182373 415.84655762 582.20446777 C418.06684603 579.97208642 420.28383955 577.73647889 422.5 575.5 C425.42409479 572.54909622 428.35163057 569.60166797 431.28125 566.65625 C431.936698 565.99250366 432.592146 565.32875732 433.26745605 564.64489746 C436.41528194 561.48067769 439.6064582 558.42992041 442.98632812 555.51367188 C447.16741558 551.90433538 451.05713736 548.05290366 454.9375 544.125 C455.66187256 543.39684082 456.38624512 542.66868164 457.13256836 541.91845703 C459.42418303 539.61474354 461.71250652 537.30780526 464 535 C467.01785081 531.95535221 470.03913416 528.91417033 473.0625 525.875 C473.73982178 525.18937988 474.41714355 524.50375977 475.11499023 523.79736328 C478.95104694 519.94193971 482.90255911 516.30785666 487.01953125 512.75561523 C490.39619489 509.7623228 493.54927516 506.55335217 496.71875 503.34375 C497.77201477 502.2848053 497.77201477 502.2848053 498.84655762 501.20446777 C501.06684603 498.97208642 503.28383955 496.73647889 505.5 494.5 C508.42409479 491.54909622 511.35163057 488.60166797 514.28125 485.65625 C514.936698 484.99250366 515.592146 484.32875732 516.26745605 483.64489746 C520.1369966 479.75520434 524.1203125 476.06999969 528.29133606 472.50469971 C535.29440204 466.33759389 539.75734325 458.65146073 543 450 C543.24621094 449.34644531 543.49242187 448.69289063 543.74609375 448.01953125 C547.5955002 435.56869245 545.14994734 420.73406252 539.375 409.3125 C531.45800683 395.93551153 520.75737483 388.34014438 506 384 C500.71537541 382.93094597 495.40119884 382.1704809 490.0625 381.4375 C488.69190024 381.24132854 487.3214562 381.04406592 485.95117188 380.84570312 C483.1891015 380.44688409 480.42622298 380.05437367 477.66273499 379.66551208 C473.27487541 379.04348525 468.89309347 378.38526496 464.51147461 377.72094727 C450.46694344 375.60438617 436.40804608 373.58569314 422.35103416 371.55410194 C418.40327075 370.98340655 414.45560662 370.41202525 410.50793457 369.84069824 C400.5053778 368.3931897 390.50269607 366.94654559 380.5 365.5 C369.69265019 363.93708895 358.88532386 362.37401646 348.07814169 360.80994654 C344.17104187 360.24451643 340.26391165 359.67929828 336.35670471 359.11460876 C321.5448155 356.97388155 306.73334912 354.83250936 291.93615723 352.59191895 C285.96226868 351.69356616 279.98175605 350.84431485 274 350 C266.99018071 349.01057575 259.98429496 348.00112454 252.98498535 346.93995667 C245.09131463 345.74358476 237.19333007 344.60327271 229.28125 343.53515625 C226.58943556 343.16734945 223.89773322 342.79873163 221.20605469 342.42993164 C219.3881896 342.18309954 217.56981552 341.93998991 215.75097656 341.70043945 C194.89265217 338.94371004 176.1799672 334.05799332 162.3828125 316.87866211 C157.49012374 310.28184528 154.1141753 302.73954269 150.48828125 295.40234375 C149.67188677 293.76461539 148.85483158 292.12721625 148.03715515 290.49012756 C146.32533933 287.0588765 144.61869773 283.62512239 142.91625977 280.18920898 C140.76920342 275.85595646 138.61384684 271.52690855 136.45510292 267.19946861 C128.76899824 251.79068566 121.11449299 236.3708129 113.73506165 220.8122406 C108.8171681 210.46160466 103.65381436 200.23462359 98.5 190 C92.76389107 178.60903562 87.06590083 167.2080781 81.59375 155.6875 C75.58056078 143.0319663 69.29685954 130.51620791 63 118 C55.27815028 102.65135265 47.68676059 87.25548556 40.30627441 71.73980713 C36.95582028 64.71249493 33.5609291 57.70762398 30.11962891 50.72436523 C29.27997227 49.01293486 28.44677549 47.29832204 27.61962891 45.58081055 C22.76482268 35.50987071 18.23137396 26.74729666 10 19 C9.39349609 18.39921631 8.78699219 17.79843262 8.16210938 17.17944336 C-1.71223086 7.59524813 -15.1313665 5.60634976 -28.26586914 5.62915039 C-34.79832497 5.79125785 -40.1461514 7.00282951 -46 10 Z " fill="#391D07" transform="translate(625,17)"/>
<path d="M0 0 C0.86625 0.12375 1.7325 0.2475 2.625 0.375 C5.45085166 4.23380005 6.86480198 8.55320494 8.3125 13.0625 C8.53744141 13.73861328 8.76238281 14.41472656 8.99414062 15.11132812 C10.625 20.0931326 10.625 20.0931326 10.625 22.375 C11.53378906 22.53935547 11.53378906 22.53935547 12.4609375 22.70703125 C29.10697343 25.85697343 29.10697343 25.85697343 32.625 29.375 C33.140625 31.6796875 33.140625 31.6796875 32.625 34.375 C30.56193043 36.33670488 28.6815321 37.88493362 26.375 39.5 C25.78847656 39.92925781 25.20195313 40.35851562 24.59765625 40.80078125 C22.25229342 42.51368669 19.91442995 44.19675489 17.44067383 45.72021484 C15.42062496 47.225709 15.42062496 47.225709 15.21850586 49.59570312 C15.25854736 50.44068359 15.29858887 51.28566406 15.33984375 52.15625 C15.36626953 53.08050781 15.39269531 54.00476563 15.41992188 54.95703125 C15.46697266 55.91996094 15.51402344 56.88289063 15.5625 57.875 C15.64796219 59.78067939 15.72016821 61.6870123 15.77734375 63.59375 C15.81851318 64.43873047 15.85968262 65.28371094 15.90209961 66.15429688 C15.625 68.375 15.625 68.375 14.2565918 70.17333984 C12.625 71.375 12.625 71.375 10.3671875 71.3828125 C5.95172248 69.76003476 2.58448447 66.75387408 -1.02734375 63.79296875 C-4.30728291 61.27714728 -5.70393715 60.36261339 -9.97265625 60.44140625 C-13.06025042 61.28863358 -15.97288851 62.23353114 -18.9375 63.4375 C-22.89541825 64.93259275 -26.09000806 66.03422953 -30.375 65.375 C-31.035 64.715 -31.695 64.055 -32.375 63.375 C-32.12619688 57.65252828 -30.14464195 52.66016387 -28.1171875 47.33984375 C-27.22908913 43.79212446 -27.29979014 41.87505553 -28.375 38.375 C-30.41438914 35.47104931 -32.56510827 32.83009199 -34.86914062 30.14257812 C-36.9379824 27.6259351 -38.29987943 25.85617773 -38.80859375 22.59765625 C-38.375 20.375 -38.375 20.375 -36.375 18.375 C-34.30297852 18.31005859 -34.30297852 18.31005859 -31.75390625 18.5234375 C-21.49753786 19.36875645 -21.49753786 19.36875645 -12.27832031 15.78222656 C-8.44813137 11.47035915 -5.88201121 6.53616078 -3.375 1.375 C-2.375 0.375 -2.375 0.375 0 0 Z " fill="#DDCC29" transform="translate(1094.375,255.625)"/>
<path d="M0 0 C3.18890437 1.42255957 4.01333501 3.9481648 5.7265625 6.9375 C7.76262546 10.09168757 9.55415635 12.471057 13.24462891 13.58349609 C18.52885422 14.32721796 23.78275136 14.08448864 29.1015625 13.9375 C29.7615625 14.2675 30.4215625 14.5975 31.1015625 14.9375 C31.50007184 18.34015666 31.28218744 19.67308406 29.31640625 22.55078125 C28.56488281 23.44152344 27.81335938 24.33226562 27.0390625 25.25 C23.47082973 29.70613093 23.47082973 29.70613093 22.9140625 35.125 C23.9762899 38.53530902 25.18665333 41.80261378 26.53515625 45.10546875 C27.31249732 47.61976502 26.9459629 49.48106247 26.1015625 51.9375 C21.35001901 53.75627263 17.66643617 51.49724629 13.171875 49.75 C9.60569448 48.80627793 7.626989 48.87658603 4.1015625 49.9375 C1.39730144 51.89758095 -0.9688105 54.06968893 -3.43359375 56.3203125 C-5.8984375 57.9375 -5.8984375 57.9375 -8.64453125 57.7421875 C-10.8984375 56.9375 -10.8984375 56.9375 -11.8984375 55.9375 C-11.85203125 54.7103125 -11.805625 53.483125 -11.7578125 52.21875 C-11.16869672 43.79235133 -11.16869672 43.79235133 -14.21728516 36.28662109 C-16.96653498 33.98970686 -19.9133863 32.38598365 -23.08984375 30.76171875 C-24.01667969 30.15972656 -24.94351563 29.55773438 -25.8984375 28.9375 C-26.30078125 26.20703125 -26.30078125 26.20703125 -25.8984375 23.9375 C-24.56655679 23.33013773 -23.232828 22.72682815 -21.8984375 22.125 C-20.66867187 21.55072266 -20.66867187 21.55072266 -19.4140625 20.96484375 C-16.8984375 19.9375 -16.8984375 19.9375 -14.6953125 19.56640625 C-12.0997179 19.08592404 -10.89870903 18.71066646 -8.8984375 16.9375 C-7.00582348 12.95536597 -5.98027509 8.6887525 -4.90625 4.4296875 C-4.57367187 3.27726562 -4.24109375 2.12484375 -3.8984375 0.9375 C-1.8984375 -0.0625 -1.8984375 -0.0625 0 0 Z " fill="#D6C528" transform="translate(794.8984375,1116.0625)"/>
<path d="M0 0 C3.03267891 0.21708981 3.98504653 0.98426972 6.10546875 3.21484375 C6.79253906 4.11332031 7.47960937 5.01179688 8.1875 5.9375 C8.88230469 6.83339844 9.57710937 7.72929687 10.29296875 8.65234375 C12 11 12 11 13 13 C14.26457031 13.03738281 15.52914062 13.07476562 16.83203125 13.11328125 C18.4922173 13.17893833 20.15237222 13.24538576 21.8125 13.3125 C22.64587891 13.33505859 23.47925781 13.35761719 24.33789062 13.38085938 C25.54155273 13.4340332 25.54155273 13.4340332 26.76953125 13.48828125 C27.87711792 13.52755737 27.87711792 13.52755737 29.00708008 13.56762695 C31.47166391 14.10232963 32.40052324 15.09965347 34 17 C32.64553128 20.89755285 30.84897395 23.56885589 28.25 26.75 C25.6693484 30.26876291 25.6693484 30.26876291 24.91796875 34.4375 C25.43489434 36.73840189 26.11026609 38.81763382 27 41 C28.54708376 45.23412399 29.29012138 47.61358732 28 52 C23.09517246 53.92346178 18.80021892 51.45328733 14.09375 49.8125 C10.42224567 48.84078134 10.42224567 48.84078134 7 50 C4.16866192 52.03383749 1.47065761 54.19883157 -1.24609375 56.3828125 C-4 58 -4 58 -6.84765625 57.7421875 C-7.55792969 57.49726563 -8.26820312 57.25234375 -9 57 C-8.94457031 55.7934375 -8.88914062 54.586875 -8.83203125 53.34375 C-8.47116021 44.07845521 -8.47116021 44.07845521 -12.41015625 36.09375 C-15.1985412 34.12461386 -17.94114256 32.50700308 -21 31 C-21.99 30.34 -22.98 29.68 -24 29 C-24.1875 26.375 -24.1875 26.375 -24 24 C-18.06084316 21.49289691 -12.29722557 19.39938346 -6 18 C-5.83564453 17.03900391 -5.83564453 17.03900391 -5.66796875 16.05859375 C-3.33576642 3.33576642 -3.33576642 3.33576642 0 0 Z " fill="#F4E52E" transform="translate(52,303)"/>
<path d="M0 0 C2.4765625 0.09375 2.4765625 0.09375 5 1 C6.2734375 3.03125 6.2734375 3.03125 7.375 5.5 C8.74893966 8.06111934 8.74893966 8.06111934 11 10 C16.04832914 11.10829915 20.85090892 11.16377516 26 11 C26.7265625 12.7109375 26.7265625 12.7109375 27 15 C25.4609375 17.2265625 25.4609375 17.2265625 23.375 19.625 C20.55296306 23.27730278 20.55296306 23.27730278 20.19921875 27.69921875 C21.013345 30.30064755 21.013345 30.30064755 22.09765625 32.67578125 C23.1047751 35.26987526 23.151339 37.24172471 23 40 C18.85253587 41.17859592 16.70335515 40.70865396 12.75 39.125 C9.8993997 38.13570622 9.8993997 38.13570622 7 38 C4.22776183 39.51833352 2.2838278 41.21375657 0.0703125 43.4609375 C-2 45 -2 45 -4.7578125 44.7265625 C-5.49773437 44.48679687 -6.23765625 44.24703125 -7 44 C-6.95617187 43.07058594 -6.91234375 42.14117187 -6.8671875 41.18359375 C-6.65459585 33.75604435 -6.65459585 33.75604435 -10.29296875 27.6875 C-13.01521339 25.90621233 -13.01521339 25.90621233 -15.84765625 24.52734375 C-16.55792969 24.02332031 -17.26820312 23.51929688 -18 23 C-18.30859375 20.31640625 -18.30859375 20.31640625 -18 18 C-16.3962669 17.35309078 -14.79199694 16.70751236 -13.1875 16.0625 C-12.29417969 15.70285156 -11.40085937 15.34320313 -10.48046875 14.97265625 C-8.6729091 14.26386514 -6.84192591 13.6139753 -5 13 C-4.04237399 10.5039744 -4.04237399 10.5039744 -3.4375 7.5625 C-2.2 2.2 -2.2 2.2 0 0 Z " fill="#F2E32E" transform="translate(86,218)"/>
<path d="M0 0 C2 1 2 1 2.6328125 2.7578125 C5.34328935 15.79391542 3.96642207 28.16335344 1.64797974 41.11105347 C1.47171303 42.09796299 1.29544632 43.08487251 1.1138382 44.10168839 C0.84092579 45.62916513 0.84092579 45.62916513 0.5625 47.1875 C-2.29842675 63.30009806 -5.12913149 79.41774075 -7.91796875 95.54296875 C-8.10166645 96.60450542 -8.28536415 97.6660421 -8.47462845 98.75974655 C-14.20116219 131.86389386 -19.84814042 164.98174201 -25.50393564 198.09803063 C-26.73420426 205.30134084 -27.96516386 212.50453285 -29.19629276 219.70769608 C-30.55017741 227.6291564 -31.90364071 235.55068866 -33.25690079 243.47225571 C-33.82367607 246.78995776 -34.39058427 250.10763706 -34.95760727 253.42529678 C-35.74673434 258.04273697 -36.53545627 262.66024617 -37.32373047 267.27783203 C-37.44591226 267.99351786 -37.56809404 268.70920368 -37.69397831 269.44657695 C-39.29202176 278.8105631 -40.87502915 288.1768054 -42.4185791 297.54994202 C-43.61408273 304.64386804 -44.94470827 311.71464761 -46.28125 318.78320312 C-47.69701951 326.51312985 -48.55085918 334.15462859 -49 342 C-49.33 342 -49.66 342 -50 342 C-51.27524597 322.74552081 -47.63447222 304.25521008 -44.32342529 285.38201904 C-43.58545417 281.15337521 -42.86798751 276.92126284 -42.1484375 272.68945312 C-39.33630317 256.19768182 -36.42501423 239.72346406 -33.50432777 223.25063896 C-31.13487188 209.8769335 -28.88488464 196.48474509 -26.67453003 183.08380127 C-23.54917369 164.14465615 -20.37673515 145.21558328 -17.02816772 126.31451416 C-14.37257606 111.31021384 -11.8665916 96.28231607 -9.375 81.25 C-4.48534885 51.7659316 -4.48534885 51.7659316 -2 37.8125 C-1.8045459 36.7100293 -1.6090918 35.60755859 -1.40771484 34.47167969 C-0.12962186 27.38886557 -0.12962186 27.38886557 1 24 C1.32814288 15.95084825 1.12009464 7.98067427 0 0 Z " fill="#786247" transform="translate(278,724)"/>
<path d="M0 0 C2.68359375 0.34375 2.68359375 0.34375 5 1 C4.979375 1.79664063 4.95875 2.59328125 4.9375 3.4140625 C4.91238864 9.76472153 4.91238864 9.76472153 7.84765625 15.1328125 C9.84296911 16.5897076 11.80875367 17.86194951 14 19 C13.2734375 20.9296875 13.2734375 20.9296875 12 23 C9.9765625 23.6953125 9.9765625 23.6953125 7.625 24.125 C4.3938563 25.03554774 3.30384131 25.50535597 1.51953125 28.41015625 C0.54159346 30.92031426 -0.30214864 33.39891765 -1 36 C-3.3984375 35.6875 -3.3984375 35.6875 -6 35 C-6.53625 34.01 -7.0725 33.02 -7.625 32 C-9.65555546 28.78669536 -9.65555546 28.78669536 -12.625 28.41796875 C-14.59330465 28.26675785 -16.56573987 28.16101805 -18.5390625 28.10546875 C-21 28 -21 28 -23 27 C-22.61383512 23.62105727 -22.23230077 22.23893793 -19.8125 19.75 C-17.74683738 17.24664567 -17.74683738 17.24664567 -18.21875 14.859375 C-18.61456522 13.28653031 -19.03524663 11.71973548 -19.48046875 10.16015625 C-20.11544731 7.51998225 -19.82912562 5.57028943 -19 3 C-12.1372549 3.96078431 -12.1372549 3.96078431 -8.9375 4.875 C-4.67429232 5.05641309 -3.15536957 2.68542091 0 0 Z " fill="#F4E52E" transform="translate(883,1152)"/>
<path d="M0 0 C3.03267891 0.21708981 3.98504653 0.98426972 6.10546875 3.21484375 C6.79253906 4.11332031 7.47960937 5.01179688 8.1875 5.9375 C8.88230469 6.83339844 9.57710937 7.72929687 10.29296875 8.65234375 C12 11 12 11 13 13 C14.26457031 13.03738281 15.52914062 13.07476562 16.83203125 13.11328125 C18.4922173 13.17893833 20.15237222 13.24538576 21.8125 13.3125 C22.64587891 13.33505859 23.47925781 13.35761719 24.33789062 13.38085938 C25.54155273 13.4340332 25.54155273 13.4340332 26.76953125 13.48828125 C27.87711792 13.52755737 27.87711792 13.52755737 29.00708008 13.56762695 C31.47166391 14.10232963 32.40052324 15.09965347 34 17 C32.64553128 20.89755285 30.84897395 23.56885589 28.25 26.75 C25.6693484 30.26876291 25.6693484 30.26876291 24.91796875 34.4375 C25.43489434 36.73840189 26.11026609 38.81763382 27 41 C28.54708376 45.23412399 29.29012138 47.61358732 28 52 C23.09517246 53.92346178 18.80021892 51.45328733 14.09375 49.8125 C10.42224567 48.84078134 10.42224567 48.84078134 7 50 C4.16866192 52.03383749 1.47065761 54.19883157 -1.24609375 56.3828125 C-4 58 -4 58 -6.84765625 57.7421875 C-7.55792969 57.49726563 -8.26820312 57.25234375 -9 57 C-8.94457031 55.7934375 -8.88914062 54.586875 -8.83203125 53.34375 C-8.47116021 44.07845521 -8.47116021 44.07845521 -12.41015625 36.09375 C-15.1985412 34.12461386 -17.94114256 32.50700308 -21 31 C-21.99 30.34 -22.98 29.68 -24 29 C-24.1875 26.375 -24.1875 26.375 -24 24 C-18.06084316 21.49289691 -12.29722557 19.39938346 -6 18 C-5.83564453 17.03900391 -5.83564453 17.03900391 -5.66796875 16.05859375 C-3.33576642 3.33576642 -3.33576642 3.33576642 0 0 Z M0 2 C-0.18175781 2.556875 -0.36351563 3.11375 -0.55078125 3.6875 C-1.07947549 5.2925615 -1.62779661 6.89123841 -2.19140625 8.484375 C-3.04655216 10.91845808 -3.04655216 10.91845808 -3.33984375 13.203125 C-3.85173213 15.75769179 -4.26808978 17.01570085 -6 19 C-9.23103527 20.35891416 -12.33732914 21.42673785 -15.72949219 22.27832031 C-17.96639006 22.82432614 -17.96639006 22.82432614 -21 24 C-22.0796644 26.03242042 -22.0796644 26.03242042 -22 28 C-20.58367866 29.10460959 -19.16692736 30.20866788 -17.75 31.3125 C-16.96109375 31.92738281 -16.1721875 32.54226563 -15.359375 33.17578125 C-13.10855267 35.03070134 -13.10855267 35.03070134 -10.75 36.15625 C-7.80737427 39.25651639 -8.32000513 43.07310732 -8.25 47.1875 C-8.22035156 48.03248047 -8.19070312 48.87746094 -8.16015625 49.74804688 C-8.0895301 51.83151822 -8.04249205 53.91576506 -8 56 C-4.66368594 56.38450428 -3.36769321 56.27820496 -0.640625 54.21484375 C0.14828125 53.46332031 0.9371875 52.71179688 1.75 51.9375 C6.28492433 48.1111576 6.28492433 48.1111576 9.4375 47.62109375 C13.82547092 48.1028811 17.83446663 49.5799318 22 51 C24.75065232 51.16857483 24.75065232 51.16857483 27 51 C26.70052443 46.44590601 26.35533998 42.34711823 24.375 38.1875 C22.8907721 34.74678988 22.70398285 34.30936473 24 31 C25.99465535 28.13241937 28.13433145 25.40809614 30.28515625 22.65625 C32.36158674 19.96686136 32.36158674 19.96686136 32 16 C30.73285156 16.06703125 29.46570313 16.1340625 28.16015625 16.203125 C15.09376826 16.47277563 15.09376826 16.47277563 11.28125 13.79101562 C8.92839759 11.29110994 7.3841075 8.68418196 5.69140625 5.6875 C4.28040055 2.85692835 4.28040055 2.85692835 1.77734375 2.125 C1.19082031 2.08375 0.60429688 2.0425 0 2 Z " fill="#422608" transform="translate(52,303)"/>
<path d="M0 0 C2.4765625 0.09375 2.4765625 0.09375 5 1 C6.2734375 3.03125 6.2734375 3.03125 7.375 5.5 C8.74893966 8.06111934 8.74893966 8.06111934 11 10 C16.04832914 11.10829915 20.85090892 11.16377516 26 11 C26.7265625 12.7109375 26.7265625 12.7109375 27 15 C25.4609375 17.2265625 25.4609375 17.2265625 23.375 19.625 C20.55296306 23.27730278 20.55296306 23.27730278 20.19921875 27.69921875 C21.013345 30.30064755 21.013345 30.30064755 22.09765625 32.67578125 C23.1047751 35.26987526 23.151339 37.24172471 23 40 C18.85253587 41.17859592 16.70335515 40.70865396 12.75 39.125 C9.8993997 38.13570622 9.8993997 38.13570622 7 38 C4.22776183 39.51833352 2.2838278 41.21375657 0.0703125 43.4609375 C-2 45 -2 45 -4.7578125 44.7265625 C-5.49773437 44.48679687 -6.23765625 44.24703125 -7 44 C-6.95617187 43.07058594 -6.91234375 42.14117187 -6.8671875 41.18359375 C-6.65459585 33.75604435 -6.65459585 33.75604435 -10.29296875 27.6875 C-13.01521339 25.90621233 -13.01521339 25.90621233 -15.84765625 24.52734375 C-16.55792969 24.02332031 -17.26820312 23.51929688 -18 23 C-18.30859375 20.31640625 -18.30859375 20.31640625 -18 18 C-16.3962669 17.35309078 -14.79199694 16.70751236 -13.1875 16.0625 C-12.29417969 15.70285156 -11.40085937 15.34320313 -10.48046875 14.97265625 C-8.6729091 14.26386514 -6.84192591 13.6139753 -5 13 C-4.04237399 10.5039744 -4.04237399 10.5039744 -3.4375 7.5625 C-2.2 2.2 -2.2 2.2 0 0 Z M0 2 C-0.14953125 2.81984375 -0.2990625 3.6396875 -0.453125 4.484375 C-1.31323369 8.00913416 -2.18390065 10.84816169 -4 14 C-7.14400957 15.6756767 -9.93459168 16.44862322 -13.41796875 17.15625 C-14.27003906 17.4346875 -15.12210937 17.713125 -16 18 C-16.95769519 20.01173618 -16.95769519 20.01173618 -17 22 C-16.28972656 22.34289062 -15.57945313 22.68578125 -14.84765625 23.0390625 C-11.74304388 24.80690629 -9.42962284 26.36342461 -7 29 C-5.83418083 33.70949858 -5.77219989 38.16929757 -6 43 C-2.40742603 42.47276218 -0.35211891 41.75624042 2.375 39.375 C5.19743019 37.25360539 5.70810182 36.98938552 9.4375 37.125 C10.613125 37.41375 11.78875 37.7025 13 38 C14.47678767 38.20539829 15.95616493 38.39298102 17.4375 38.5625 C18.613125 38.706875 19.78875 38.85125 21 39 C20.855625 37.845 20.71125 36.69 20.5625 35.5 C20.48 34.7678125 20.3975 34.035625 20.3125 33.28125 C20.04440774 31.02721445 20.04440774 31.02721445 19.5 28.96875 C18.76277848 25.65125317 18.51076787 23.83589661 20.2734375 20.82421875 C21.35567573 19.43458421 22.48101335 18.07713079 23.65234375 16.76171875 C25.30379042 14.97254925 25.30379042 14.97254925 25 12 C23.49759766 12.04833984 23.49759766 12.04833984 21.96484375 12.09765625 C11.32226172 12.11770129 11.32226172 12.11770129 7.55078125 8.9296875 C5.75 6.4375 5.75 6.4375 4.296875 3.93359375 C3.86890625 3.29550781 3.4409375 2.65742188 3 2 C2.01 2 1.02 2 0 2 Z " fill="#3E2107" transform="translate(86,218)"/>
<path d="M0 0 C2.68359375 0.34375 2.68359375 0.34375 5 1 C4.979375 1.79664063 4.95875 2.59328125 4.9375 3.4140625 C4.91238864 9.76472153 4.91238864 9.76472153 7.84765625 15.1328125 C9.84296911 16.5897076 11.80875367 17.86194951 14 19 C13.2734375 20.9296875 13.2734375 20.9296875 12 23 C9.9765625 23.6953125 9.9765625 23.6953125 7.625 24.125 C4.3938563 25.03554774 3.30384131 25.50535597 1.51953125 28.41015625 C0.54159346 30.92031426 -0.30214864 33.39891765 -1 36 C-3.3984375 35.6875 -3.3984375 35.6875 -6 35 C-6.53625 34.01 -7.0725 33.02 -7.625 32 C-9.65555546 28.78669536 -9.65555546 28.78669536 -12.625 28.41796875 C-14.59330465 28.26675785 -16.56573987 28.16101805 -18.5390625 28.10546875 C-21 28 -21 28 -23 27 C-22.61383512 23.62105727 -22.23230077 22.23893793 -19.8125 19.75 C-17.74683738 17.24664567 -17.74683738 17.24664567 -18.21875 14.859375 C-18.61456522 13.28653031 -19.03524663 11.71973548 -19.48046875 10.16015625 C-20.11544731 7.51998225 -19.82912562 5.57028943 -19 3 C-12.1372549 3.96078431 -12.1372549 3.96078431 -8.9375 4.875 C-4.67429232 5.05641309 -3.15536957 2.68542091 0 0 Z M-2.26171875 4.015625 C-5.79215483 6.57405799 -7.55051196 6.26660461 -11.8125 5.75 C-12.97394531 5.62109375 -14.13539063 5.4921875 -15.33203125 5.359375 C-16.21246094 5.24078125 -17.09289062 5.1221875 -18 5 C-17.88140625 5.88042969 -17.7628125 6.76085938 -17.640625 7.66796875 C-17.51171875 8.82941406 -17.3828125 9.99085937 -17.25 11.1875 C-17.11078125 12.33605469 -16.9715625 13.48460937 -16.828125 14.66796875 C-17.03867479 18.74976347 -18.33884072 20.01393174 -21 23 C-21 23.99 -21 24.98 -21 26 C-20.27554688 25.979375 -19.55109375 25.95875 -18.8046875 25.9375 C-10.96722778 26.10469914 -10.96722778 26.10469914 -8.00390625 28.84765625 C-6.4375 31.0625 -6.4375 31.0625 -5.12109375 33.28515625 C-4.75113281 33.85105469 -4.38117187 34.41695312 -4 35 C-3.34 35 -2.68 35 -2 35 C-1.82726562 34.32453125 -1.65453125 33.6490625 -1.4765625 32.953125 C0.79138054 25.75396637 0.79138054 25.75396637 4.4921875 23.4453125 C6.97675317 22.48104764 9.41891486 21.66004849 12 21 C10.62490115 17.76486407 10.23475209 17.11977148 6.9375 15.4375 C4 13 4 13 3.38671875 10.30078125 C3.14853462 7.52433639 3.00960725 4.78610287 3 2 C-0.1316459 1.66733817 -0.1316459 1.66733817 -2.26171875 4.015625 Z " fill="#482C09" transform="translate(883,1152)"/>
<path d="M0 0 C2 1 2 1 2.6328125 2.7578125 C4.22359553 10.40872134 4.66219095 18.20951819 4 26 C3.34 26.66 2.68 27.32 2 28 C0.79242743 24.2546382 0.93622962 20.72242127 1 16.8125 C1.06081457 11.12288274 0.79113324 5.63682434 0 0 Z " fill="#85714D" transform="translate(278,724)"/>
<path d="M0 0 C0.66 0.33 1.32 0.66 2 1 C1.85811015 3.54194161 1.71160845 6.08347993 1.5625 8.625 C1.50352539 9.69427734 1.50352539 9.69427734 1.44335938 10.78515625 C1.19690319 14.91803682 0.76529947 18.92269024 0 23 C-2.27944443 19.41926355 -2.0896844 16.78252069 -1.6875 12.625 C-1.58824219 11.52414062 -1.48898438 10.42328125 -1.38671875 9.2890625 C-1.02000848 6.17017316 -0.54646847 3.09198397 0 0 Z " fill="#816B4A" transform="translate(236,998)"/>
<path d="M0 0 C2.35546875 0.15234375 2.35546875 0.15234375 5 1 C6.80078125 3.06640625 6.80078125 3.06640625 8.3125 5.5625 C8.82425781 6.38878906 9.33601563 7.21507812 9.86328125 8.06640625 C10.23839844 8.70449219 10.61351563 9.34257812 11 10 C10.67 10.66 10.34 11.32 10 12 C9.29423828 11.04287109 9.29423828 11.04287109 8.57421875 10.06640625 C7.95160156 9.24011719 7.32898438 8.41382813 6.6875 7.5625 C5.76517578 6.32693359 5.76517578 6.32693359 4.82421875 5.06640625 C3.08702303 2.75016363 3.08702303 2.75016363 0 2 C-0.99 5.96 -1.98 9.92 -3 14 C-3.33 14 -3.66 14 -4 14 C-2.86792453 2.86792453 -2.86792453 2.86792453 0 0 Z " fill="#482D09" transform="translate(86,218)"/>
<path d="M0 0 C-3.86842417 2.57894945 -7.85462446 3.57586938 -12.28515625 4.90234375 C-15.28638603 5.81916069 -15.28638603 5.81916069 -17 9 C-17.33 7.68 -17.66 6.36 -18 5 C-16.3962669 4.35309078 -14.79199694 3.70751236 -13.1875 3.0625 C-11.84751953 2.52302734 -11.84751953 2.52302734 -10.48046875 1.97265625 C-6.76340482 0.5150989 -3.98166028 -0.10761244 0 0 Z " fill="#482C09" transform="translate(46,322)"/>
<path d="M0 0 C2.71232939 4.06849409 2.30699887 6.16476784 2 11 C1.34 11.66 0.68 12.32 0 13 C-0.33 12.67 -0.66 12.34 -1 12 C-0.90997602 9.97591245 -0.75358962 7.95455713 -0.5625 5.9375 C-0.46066406 4.83277344 -0.35882813 3.72804688 -0.25390625 2.58984375 C-0.17011719 1.73519531 -0.08632812 0.88054688 0 0 Z " fill="#715A41" transform="translate(233,1014)"/>
<path d="M0 0 C2.71232939 4.06849409 2.30699887 6.16476784 2 11 C1.34 11.66 0.68 12.32 0 13 C-0.33 12.67 -0.66 12.34 -1 12 C-0.90997602 9.97591245 -0.75358962 7.95455713 -0.5625 5.9375 C-0.46066406 4.83277344 -0.35882813 3.72804688 -0.25390625 2.58984375 C-0.17011719 1.73519531 -0.08632812 0.88054688 0 0 Z " fill="#705A41" transform="translate(241,967)"/>
<path d="M0 0 C2.71232939 4.06849409 2.30699887 6.16476784 2 11 C1.34 11.66 0.68 12.32 0 13 C-0.83796731 8.34462607 -1.0161692 4.62921525 0 0 Z " fill="#6F5840" transform="translate(249,920)"/>
<path d="M0 0 C2.30143236 3.45214853 2.13833854 4.23479324 1.625 8.1875 C1.51414062 9.08855469 1.40328125 9.98960937 1.2890625 10.91796875 C1.19367188 11.60503906 1.09828125 12.29210937 1 13 C-1 11 -1 11 -1.23046875 8.90625 C-1.21628906 8.1121875 -1.20210938 7.318125 -1.1875 6.5 C-1.18105469 5.7059375 -1.17460937 4.911875 -1.16796875 4.09375 C-1 2 -1 2 0 0 Z " fill="#7C664A" transform="translate(279,749)"/>
<path d="M0 0 C0.66 0.66 1.32 1.32 2 2 C1.9765625 4.3828125 1.9765625 4.3828125 1.625 7.125 C1.51414062 8.03507813 1.40328125 8.94515625 1.2890625 9.8828125 C1.19367188 10.58148437 1.09828125 11.28015625 1 12 C-1.44576827 8.33134759 -1.23607254 6.32799657 -1 2 C-0.67 1.34 -0.34 0.68 0 0 Z " fill="#7F694B" transform="translate(259,867)"/>
<path d="M0 0 C0.66 0.33 1.32 0.66 2 1 C1.67 4.3 1.34 7.6 1 11 C-1.43769218 7.34346173 -1.23944439 5.30999899 -1 1 C-0.67 0.67 -0.34 0.34 0 0 Z " fill="#7F694A" transform="translate(240,979)"/>
<path d="M0 0 C2.23551759 3.35327639 2.17283528 3.90743657 1.625 7.6875 C1.51414062 8.49574219 1.40328125 9.30398438 1.2890625 10.13671875 C1.19367188 10.75160156 1.09828125 11.36648438 1 12 C0.34 11.34 -0.32 10.68 -1 10 C-0.9765625 7.6171875 -0.9765625 7.6171875 -0.625 4.875 C-0.51414062 3.96492187 -0.40328125 3.05484375 -0.2890625 2.1171875 C-0.19367188 1.41851563 -0.09828125 0.71984375 0 0 Z " fill="#715A44" transform="translate(270,798)"/>
</svg>
