<?xml version="1.0" encoding="UTF-8"?>
<svg version="1.1" xmlns="http://www.w3.org/2000/svg" width="1568" height="1643">
<path d="M0 0 C0.81712463 -0.00287018 1.63424927 -0.00574036 2.47613525 -0.00869751 C4.21765836 -0.01073493 5.95920452 -0.00522756 7.70068359 0.00732422 C10.22423828 0.0228004 12.74604 0.00778118 15.26953125 -0.01171875 C49.32197514 -0.07139332 83.37255079 5.1411039 117.08129883 9.38647461 C123.42098143 10.18472138 129.76232428 10.96883472 136.10422611 11.74922848 C141.06653147 12.36168929 146.02779406 12.98229055 150.98879814 13.605196 C153.32647421 13.89762691 155.6644756 14.18747128 158.00282478 14.47447014 C206.26734994 20.41434524 206.26734994 20.41434524 220.578125 33.3984375 C225.01313658 39.62211965 228.03705956 46.36132696 230.765625 53.4609375 C231.37784912 55.01953491 231.37784912 55.01953491 232.00244141 56.60961914 C233.53935358 60.53476962 235.05956939 64.46615995 236.578125 68.3984375 C237.24125484 70.11300171 237.90451048 71.82751726 238.56787109 73.54199219 C238.92084259 74.45430603 239.27381409 75.36661987 239.63748169 76.30657959 C240.18624466 77.72490082 240.18624466 77.72490082 240.74609375 79.171875 C241.30875443 80.62620941 241.30875443 80.62620941 241.88278198 82.10992432 C243.07270758 85.18533512 244.26288718 88.26064752 245.453125 91.3359375 C245.85849487 92.38362305 246.26386475 93.43130859 246.68151855 94.51074219 C261.26231988 132.17888597 276.38881057 169.60659964 292.00241089 206.8578949 C296.07234813 216.56986592 300.11015173 226.29503497 304.140625 236.0234375 C304.48364655 236.85107605 304.82666809 237.6787146 305.18008423 238.53143311 C315.18650007 262.67545358 325.15858059 286.83372108 335.12399292 310.99468994 C344.45107127 333.60694705 353.81687866 356.20252411 363.23364258 378.77758789 C368.22400413 390.74203873 373.19985422 402.71234959 378.15917969 414.68969727 C384.3094252 429.5432018 390.49119287 444.38312243 396.703125 459.2109375 C397.45476835 461.00560864 398.20639606 462.80028633 398.95800781 464.5949707 C401.89222392 471.600682 404.82656149 478.60634137 407.76367188 485.61083984 C409.5041218 489.76206973 411.24194108 493.91439226 412.97796631 498.06747437 C413.61655821 499.59392765 414.25605052 501.12000463 414.89654541 502.6456604 C416.32414341 506.04660158 417.74253592 509.45040244 419.13183594 512.8671875 C420.01594076 515.02581211 420.9248101 517.1747617 421.87597656 519.3046875 C425.43003179 527.76228173 424.578125 532.05005518 424.578125 542.3984375 C663.828125 542.3984375 903.078125 542.3984375 1149.578125 542.3984375 C1149.908125 539.0984375 1150.238125 535.7984375 1150.578125 532.3984375 C1153.0033108 518.07939788 1159.05812229 505.12175845 1164.828125 491.8984375 C1165.85740332 489.51467887 1166.88545351 487.13038962 1167.91235352 484.74560547 C1170.05373537 479.77674691 1172.20133697 474.81065752 1174.35400391 469.84667969 C1177.4529567 462.69814637 1180.52550777 455.53844351 1183.58984375 448.375 C1184.07871063 447.23226624 1184.56757751 446.08953247 1185.07125854 444.91217041 C1186.0578562 442.60577749 1187.04439799 440.29936068 1188.03088379 437.99291992 C1190.53132496 432.14999144 1193.03722125 426.30940436 1195.54296875 420.46875 C1199.55756202 411.11004844 1203.57077856 401.75075889 1207.58203125 392.390625 C1208.07682983 391.23602783 1208.57162842 390.08143066 1209.0814209 388.8918457 C1210.58035175 385.3940556 1212.07924575 381.89624971 1213.578125 378.3984375 C1219.08507945 365.54730723 1224.5920584 352.69618911 1230.10379028 339.84710693 C1240.93675218 314.59290003 1251.74686493 289.32930245 1262.50564575 264.043396 C1270.3303075 245.65471359 1278.19036432 227.2814241 1286.07226562 208.91720581 C1291.44548958 196.39798572 1296.80813203 183.87451071 1302.12918091 171.33302689 C1302.9177676 169.47452387 1303.7067485 167.6161887 1304.49584961 165.75790405 C1306.97386022 159.92165214 1309.44889105 154.08417729 1311.91796875 148.24414062 C1315.82907699 139.01311632 1319.76326969 129.795071 1323.97265625 120.6953125 C1324.27888916 120.02299088 1324.58512207 119.35066925 1324.90063477 118.65797424 C1327.5692153 112.98976349 1331.01748386 108.64112544 1335.578125 104.3984375 C1336.75375 103.1609375 1336.75375 103.1609375 1337.953125 101.8984375 C1342.00783333 99.58146131 1345.97669207 99.56012768 1350.578125 99.3984375 C1351.38636719 99.346875 1352.19460938 99.2953125 1353.02734375 99.2421875 C1362.28935778 98.88423527 1372.91339127 100.89982417 1380.578125 106.3984375 C1388.93013883 116.50877003 1387.26014927 129.76253562 1386.2890625 142.05859375 C1383.3292463 160.94398813 1373.55759739 179.50120511 1365.75073242 196.80517578 C1360.49545488 208.47791625 1355.4785399 220.2502586 1350.453125 232.0234375 C1343.80896999 247.58265289 1337.09802983 263.10847571 1330.265625 278.5859375 C1322.89346758 295.29750253 1315.74835963 312.09583408 1308.70114136 328.94665527 C1306.13306212 335.08392024 1303.54663934 341.21328788 1300.953125 347.33984375 C1292.53784317 367.22150431 1284.17809603 387.12403487 1275.92651367 407.07421875 C1271.17861807 418.55151389 1266.40105617 430.01602887 1261.60095215 441.47158813 C1260.45393812 444.20899696 1259.30746461 446.94663159 1258.16113281 449.68432617 C1252.2198564 463.87208273 1252.2198564 463.87208273 1249.66650391 469.95019531 C1240.1064257 492.70917878 1230.81340897 515.5712118 1221.59902954 538.47232056 C1219.96707031 542.52566918 1218.33099657 546.57735017 1216.69436646 550.6288147 C1215.64262225 553.23840667 1214.59803806 555.85076416 1213.55444336 558.46362305 C1212.94677834 559.97067206 1212.33880958 561.47759866 1211.73046875 562.984375 C1211.47213257 563.63774338 1211.21379639 564.29111176 1210.94763184 564.96427917 C1206.51566534 575.86978104 1199.25115611 585.56375228 1191.578125 594.3984375 C1190.93101563 595.16414063 1190.28390625 595.92984375 1189.6171875 596.71875 C1184.99238373 601.81883005 1181.38492458 603.72500984 1174.578125 604.3984375 C1173.94087135 604.4772312 1173.3036177 604.5560249 1172.64705333 604.63720629 C1167.53332043 605.25683756 1162.52570452 605.54386109 1157.37747955 605.53430939 C1156.59973917 605.53685201 1155.82199878 605.53939463 1155.0206905 605.5420143 C1152.42707024 605.5493043 1149.83349793 605.54960889 1147.23986816 605.54992676 C1145.3532275 605.55378086 1143.46658769 605.55806907 1141.5799489 605.56275225 C1136.39825104 605.57437099 1131.21656196 605.57987264 1126.0348537 605.58438706 C1120.43162059 605.59035272 1114.82839904 605.60202516 1109.22517395 605.61302185 C1099.4693279 605.63141212 1089.71348158 605.64625234 1079.95762634 605.65879822 C1065.6161351 605.67730987 1051.27465921 605.70199499 1036.93318015 605.72817212 C1030.18182564 605.74048814 1023.43047056 605.75248496 1016.6791153 605.76438141 C1016.00237246 605.76557393 1015.32562962 605.76676646 1014.62837943 605.76799512 C998.48126047 605.79636686 982.33413664 605.82148446 966.18701172 605.84619141 C965.48097496 605.8472726 964.77493821 605.8483538 964.0475064 605.84946776 C958.34381452 605.8582019 952.64012262 605.86692721 946.9364307 605.87563805 C900.4204822 605.94668978 853.90454321 606.02337771 807.38861448 606.10636077 C802.65116887 606.11480291 797.91372306 606.12312172 793.17627716 606.13139343 C706.60373929 606.2827997 620.03269844 606.57708415 455.578125 607.3984375 C455.78666107 607.92160049 455.99519714 608.44476349 456.21005249 608.98377991 C458.3879153 614.44940856 460.56102884 619.91690828 462.73144531 625.38549805 C463.54111067 627.42373836 464.351969 629.46150521 465.1640625 631.4987793 C466.3339034 634.43413377 467.49938523 637.37118728 468.6640625 640.30859375 C469.02559418 641.21303726 469.38712585 642.11748077 469.75961304 643.04933167 C472.66707083 650.40223657 474.85586357 656.81716275 474.703125 664.8359375 C474.68507813 666.07214844 474.66703125 667.30835938 474.6484375 668.58203125 C474.61363281 669.97615234 474.61363281 669.97615234 474.578125 671.3984375 C476.07522743 671.39208959 476.07522743 671.39208959 477.60257435 671.38561344 C559.09404322 671.04034251 640.58557179 670.70585586 873.25893489 669.89441878 C885.14743485 669.85598514 897.03593235 669.81687051 908.92442811 669.77716152 C916.3399991 669.75241296 923.75557066 669.72783846 931.17114258 669.70336914 C931.97676404 669.70071067 932.7823855 669.6980522 933.61241974 669.69531317 C951.66742663 669.63583588 969.72243546 669.57934137 987.77748108 669.53291321 C988.52335591 669.53099358 989.26923073 669.52907395 990.03770783 669.52709614 C997.41112481 669.50818268 1004.78454286 669.48976038 1012.15796269 669.47199565 C1028.023987 669.43360603 1043.88987269 669.38408322 1059.75579304 669.31450957 C1069.65521507 669.27153317 1079.55463398 669.23841442 1089.45411831 669.21363908 C1095.04693725 669.19921876 1100.63962308 669.17983725 1106.23236656 669.14697075 C1111.29276399 669.11725416 1116.35300748 669.10133619 1121.41348815 669.09651446 C1123.22623352 669.09231375 1125.03897616 669.08300673 1126.85166383 669.06794477 C1141.74309461 668.94843086 1154.10242127 670.16609881 1165.328125 680.7734375 C1172.83554438 688.65708291 1175.28359253 697.54313676 1175.15625 708.29296875 C1174.37957599 716.49315568 1169.55976829 724.5775297 1163.6796875 730.140625 C1157.64910759 734.53064413 1153.07049901 735.87125706 1145.77887058 736.06972313 C1144.94253443 736.10262873 1144.10619828 736.13553433 1143.24451861 736.16943707 C1140.68922968 736.26362055 1138.13436189 736.33556765 1135.578125 736.3984375 C1134.84494751 736.41709697 1134.11177002 736.43575645 1133.35637502 736.45498136 C1128.35991676 736.57165471 1123.36376999 736.6195915 1118.36619568 736.65786743 C1116.72243158 736.67356688 1115.07867093 736.68963135 1113.43491358 736.7060219 C1108.96658233 736.74956471 1104.49822035 736.78807178 1100.02983603 736.8257125 C1095.16697503 736.8676303 1090.30416097 736.91446527 1085.44133949 736.9607048 C1076.96572249 737.04066703 1068.49008319 737.11772488 1060.01442146 737.19279099 C1046.31950898 737.31412425 1032.62464949 737.44089408 1018.92979431 737.56851196 C1014.16670342 737.61285075 1009.40361228 737.65716172 1004.64052105 737.7014637 C1003.44664433 737.71257339 1002.25276761 737.72368309 1001.0227128 737.73512944 C992.39598829 737.81533844 983.76925631 737.89471342 975.14252186 737.97384453 C939.95566036 738.29706258 904.76905483 738.64216623 869.58251953 738.99902344 C825.24026878 739.44857652 780.8979003 739.88282865 736.55531929 740.29860382 C730.19483707 740.35825911 723.83435651 740.41808936 717.47387695 740.47802734 C716.21213671 740.48991322 714.95039646 740.5017991 713.65042166 740.51404515 C692.69662418 740.71187043 671.74300343 740.92488962 650.78940362 741.14254133 C628.82793332 741.37033116 606.86635255 741.582512 584.90458864 741.78000033 C571.56287378 741.90045259 558.22139195 742.03271622 544.87995898 742.18119211 C535.8702401 742.28030642 526.86046039 742.36425213 517.85048348 742.43614857 C512.68055613 742.47784372 507.51091999 742.5261408 502.34124756 742.59267426 C497.60977792 742.65342535 492.87853421 742.69483434 488.14675241 742.72133644 C486.44598952 742.73417951 484.74526016 742.75388657 483.04467309 742.78150849 C463.24923309 743.0941598 448.40603729 738.34037568 433.71508789 724.57006836 C426.97291053 718.007505 423.39389278 711.22746648 419.8125 702.64453125 C419.45973999 701.80232529 419.10697998 700.96011932 418.74353027 700.09239197 C415.66353657 692.69204451 412.77153037 685.22869566 409.93783569 677.73132324 C393.73120859 634.93169846 376.43173974 592.53408106 358.578125 550.3984375 C338.51599106 503.01614623 319.2573262 455.34319295 300.578125 407.3984375 C300.1566217 406.31697449 299.73511841 405.23551147 299.30084229 404.12127686 C291.12562246 383.14239892 282.99986526 362.14514826 274.97021484 341.11010742 C249.47641238 274.32679962 222.88917365 207.99767224 194.34521484 142.45654297 C191.21682666 135.27315952 188.09314473 128.08774666 184.97607422 120.89944458 C183.91311013 118.45024597 182.84721694 116.00233618 181.78125 113.55444336 C181.12613864 112.04417896 180.47118312 110.53384695 179.81640625 109.0234375 C179.51805374 108.34040054 179.21970123 107.65736359 178.91230774 106.95362854 C176.12611148 100.5095462 174.35172093 95.06529888 173.953125 88.0234375 C173.84097656 86.15558594 173.84097656 86.15558594 173.7265625 84.25 C173.65308594 82.83847656 173.65308594 82.83847656 173.578125 81.3984375 C172.67610352 81.41414795 171.77408203 81.4298584 170.84472656 81.44604492 C167.28802133 81.49914011 163.7317703 81.53568467 160.17480469 81.56323242 C158.67473472 81.57774621 157.17470117 81.59771691 155.67480469 81.62475586 C124.05224404 82.17782534 92.18025677 77.53335957 60.80688477 74.06445312 C55.71864356 73.50202731 50.62931462 72.95016957 45.53963757 72.40090942 C41.54191739 71.96805648 37.54490272 71.52894382 33.54805946 71.08807373 C31.67112138 70.88190868 29.79395903 70.67777291 27.9165554 70.47589111 C-14.5438608 65.89723336 -14.5438608 65.89723336 -26.421875 52.3984375 C-30.95370168 43.81689336 -30.74760311 32.13045033 -28.61328125 22.90234375 C-25.64220368 14.17416084 -20.69875493 6.09988376 -12.29345703 1.796875 C-8.17200666 0.09877674 -4.41379937 -0.03569541 0 0 Z " fill="#3684BD" transform="translate(76.421875,588.6015625)"/>
<path d="M0 0 C0 27.39 0 54.78 0 83 C8.353125 82.835 16.70625 82.67 25.3125 82.5 C30.97134678 82.40152275 36.62994504 82.30525474 42.2890625 82.2265625 C43.40496702 82.21104277 43.40496702 82.21104277 44.54341507 82.1952095 C65.10160509 81.91754816 85.66069204 81.88395139 106.22048569 81.87661743 C109.14606834 81.87502259 112.07164271 81.87148027 114.9972229 81.86743164 C135.43943549 81.84230313 155.86087955 81.93301777 176.2922821 82.65060425 C224.73331656 84.31443057 267.34819772 75.44369937 312.6998291 58.83966064 C314.96019304 58.01453124 317.2232949 57.19739009 319.48730469 56.38232422 C323.02767404 55.10537959 326.55870225 53.80532459 330.08364868 52.48641968 C331.98594451 51.77848974 333.89460212 51.08772671 335.8034668 50.39770508 C344.41841541 47.11420913 350.9450775 42.83755509 358 37 C359.30462859 40.91388576 358.37454886 43.80243226 357.4375 47.6875 C357.2199707 48.68233398 357.2199707 48.68233398 356.99804688 49.69726562 C353.48996378 64.56225586 346.68141349 78.27230343 339.9375 91.875 C339.08861089 93.60127652 338.24031073 95.32784276 337.39257812 97.0546875 C332.12443135 107.77049553 326.79459984 118.45562306 321.42919922 129.12304688 C317.59418438 136.76118963 313.89456124 144.45746704 310.23242188 152.1796875 C306.29828487 160.44534909 302.20556819 168.62859672 298.0914917 176.80575562 C294.19356283 184.5565999 290.38652353 192.34001911 286.6875 200.1875 C280.51648682 213.2320689 273.85512265 226.02148864 267.19889832 238.82289124 C264.81064481 243.4208784 262.45338646 248.03360119 260.11328125 252.65625 C242.36000616 287.65082159 219.0460764 312.92139209 181.25 325.875 C163.41460404 331.48148523 144.45900048 331.20575258 125.9375 331.1875 C124.50860443 331.18759064 124.50860443 331.18759064 123.05084229 331.18768311 C90.89083554 331.15924809 58.72986511 329.75197396 26.625 327.9375 C25.91365906 327.89747864 25.20231812 327.85745728 24.46942139 327.81622314 C17.58654365 327.42221407 10.85055162 326.85631895 4 326 C4 354.71 4 383.42 4 413 C-12.88498458 398.52715607 -23.57597284 382.29923418 -35.0390625 363.484375 C-39.80273397 355.66601348 -44.69469099 347.93242058 -49.60400391 340.20507812 C-50.9664691 338.05296451 -52.31888145 335.89489499 -53.66796875 333.734375 C-66.93083038 312.52899739 -80.8276019 291.72336658 -94.71533203 270.92425537 C-96.24227591 268.6365723 -97.76788106 266.34800288 -99.29296875 264.05908203 C-99.78869385 263.31511169 -100.28441895 262.57114136 -100.79516602 261.80462646 C-101.78010673 260.32636588 -102.76497093 258.84805431 -103.74975586 257.36968994 C-106.46365908 253.29757465 -109.18696508 249.23201879 -111.91973877 245.17254639 C-113.50578221 242.81176156 -115.08245601 240.44483176 -116.65661621 238.07611084 C-117.70483432 236.50518801 -118.76476263 234.94209804 -119.82519531 233.37939453 C-127.92637151 221.14475375 -130.66718353 210.42227391 -128.52734375 195.76171875 C-126.12975258 184.69260021 -119.84645418 175.44491398 -113.52734375 166.22265625 C-112.92297989 165.33122421 -112.31861603 164.43979218 -111.69593811 163.52134705 C-109.78113228 160.69852199 -107.85976355 157.88025055 -105.9375 155.0625 C-103.42306125 151.36772861 -100.91157845 147.67096372 -98.40234375 143.97265625 C-97.78435913 143.06200409 -97.16637451 142.15135193 -96.52966309 141.21310425 C-90.22205253 131.89344525 -84.08732669 122.46459481 -78 113 C-76.96782349 111.39620483 -76.96782349 111.39620483 -75.91479492 109.76000977 C-74.3121932 107.26042437 -72.71629783 104.75679345 -71.125 102.25 C-70.55604004 101.35498779 -69.98708008 100.45997559 -69.40087891 99.5378418 C-64.38507293 91.63408539 -59.42276526 83.69719431 -54.4675293 75.75537109 C-49.18768737 67.29361949 -43.87739448 58.8517697 -38.53759766 50.42773438 C-36.90128528 47.84413795 -35.26908435 45.2579666 -33.63671875 42.671875 C-27.64464539 33.19664198 -21.58138773 23.77403748 -15.375 14.4375 C-14.79508301 13.56303223 -14.21516602 12.68856445 -13.61767578 11.78759766 C-12.09677179 9.51184477 -10.55368497 7.25344037 -9 5 C-8.31164062 3.98035156 -7.62328125 2.96070313 -6.9140625 1.91015625 C-5 0 -5 0 0 0 Z " fill="#86BB49" transform="translate(997,677)"/>
<path d="M0 0 C2.60956052 -0.00319038 5.21909602 -0.00965336 7.82864857 -0.01673436 C81.39201696 -0.18271969 81.39201696 -0.18271969 107.35628986 23.27410007 C108.59765705 24.30277194 108.59765705 24.30277194 109.86410236 25.35222507 C132.1915206 44.25003988 146.07721483 73.66766232 160.28793049 98.63713717 C164.64431598 106.29050383 169.03811577 113.92069326 173.48128986 121.52410007 C174.32046955 122.96148532 174.32046955 122.96148532 175.17660236 124.42790866 C178.22018414 129.63583474 181.27632229 134.83617586 184.34066486 140.03191257 C184.99148029 141.13889499 185.64229572 142.24587741 186.31283283 143.38640475 C187.56858268 145.52204245 188.82788773 147.65559465 190.09115314 149.78679538 C190.65044514 150.7390903 191.20973713 151.69138522 191.78597736 152.67253757 C192.28339436 153.51477878 192.78081135 154.35701999 193.29330158 155.22478366 C194.35628986 157.27410007 194.35628986 157.27410007 194.35628986 159.27410007 C205.77837419 153.90887276 217.16519918 148.48395763 228.35628986 142.64910007 C229.65602741 141.97185885 229.65602741 141.97185885 230.98202229 141.280936 C235.61463776 138.83151728 240.07986843 136.23207872 244.49081135 133.40520358 C251.56738336 128.8773459 257.87049783 126.71770808 266.35628986 126.27410007 C264.9749539 145.22632867 257.51799046 162.56732822 250.19857502 179.90007663 C248.080046 184.92060273 245.98992353 189.95285855 243.89925861 194.98503757 C240.49351005 203.17938104 237.08020279 211.37052734 233.66097736 219.55925632 C230.24079181 227.75096261 226.82912532 235.94613602 223.42660236 244.14519382 C214.93908903 264.58931093 206.38780119 285.00537915 197.72826862 305.37731051 C196.74987409 307.67907974 195.77228042 309.98118958 194.7955904 312.28368258 C189.89082051 323.84041094 184.92081724 335.36186343 179.73910236 346.79753757 C179.31241261 347.7408594 178.88572285 348.68418124 178.4461031 349.65608859 C178.0543993 350.51407046 177.6626955 351.37205234 177.25912189 352.25603366 C176.91463001 353.0109711 176.57013813 353.76590854 176.2152071 354.54372287 C175.35628986 356.27410007 175.35628986 356.27410007 174.35628986 357.27410007 C171.3900401 357.4018222 168.44892812 357.46307109 165.48128986 357.47722507 C164.53350666 357.48292514 163.58572346 357.48862521 162.60921955 357.49449801 C160.56105387 357.50400641 158.51287248 357.51050487 156.4646883 357.51433444 C153.5349736 357.5235387 150.60613459 357.55424072 147.67660236 357.58660007 C101.73581195 357.85686096 55.73021325 352.52750362 10.03118598 348.32459426 C2.56673524 347.63853419 -4.89854495 346.96176078 -12.36391258 346.2857635 C-19.57049678 345.63313902 -26.77672715 344.97663933 -33.98289418 344.31942677 C-36.26816872 344.11115491 -38.55348873 343.90338759 -40.83881474 343.69568133 C-44.40596189 343.37121338 -47.97287911 343.04432079 -51.53963184 342.71554637 C-53.46064464 342.53896181 -55.381856 342.36454151 -57.30307293 342.19019198 C-59.02668293 342.0305572 -59.02668293 342.0305572 -60.78511333 341.86769748 C-61.77784598 341.77664926 -62.77057863 341.68560103 -63.79339409 341.59179378 C-66.76711226 341.26034577 -69.69721796 340.79194963 -72.64371014 340.27410007 C-69.38828868 329.57446312 -63.36997487 322.27291358 -53.77652264 316.52800632 C-53.21789028 316.19143512 -52.65925793 315.85486392 -52.08369732 315.5080936 C-50.27502644 314.42206102 -48.46017463 313.34703981 -46.64371014 312.27410007 C-46.0294215 311.90953708 -45.41513287 311.54497409 -44.78222942 311.16936374 C-40.99031982 308.92006056 -37.18941512 306.68651601 -33.38272381 304.46233249 C-31.41862561 303.31463805 -29.4558897 302.1646395 -27.49331951 301.01433444 C-17.94689041 295.4256902 -17.94689041 295.4256902 -15.64371014 294.27410007 C-16.242575 290.61156004 -17.25731054 287.66193981 -18.90933514 284.34441257 C-19.38032635 283.3963071 -19.85131756 282.44820163 -20.33658123 281.47136569 C-20.85043377 280.45751803 -21.36428631 279.44367038 -21.89371014 278.39910007 C-22.42947674 277.33626803 -22.96524334 276.273436 -23.51724529 275.17839694 C-29.20483449 264.0047538 -35.36017921 253.12062758 -41.64371014 242.27410007 C-42.1925285 241.32099948 -42.74134686 240.36789889 -43.30679607 239.38591647 C-50.42408981 227.02725318 -57.73412063 214.79464977 -65.16546917 202.62325168 C-72.26009747 190.99488445 -79.07807425 179.21731005 -85.84829998 167.39714694 C-88.75482487 162.34135874 -91.69921991 157.30784127 -94.64371014 152.27410007 C-98.90665422 144.98376051 -103.14311531 137.67906424 -107.35196209 130.35735202 C-131.28384318 88.52320635 -131.28384318 88.52320635 -161.64371014 51.27410007 C-162.49191326 50.36273288 -163.34011639 49.45136569 -164.21402264 48.51238132 C-180.61201553 31.35567532 -200.88461962 20.22675039 -222.64371014 11.27410007 C-222.64371014 9.62410007 -222.64371014 7.97410007 -222.64371014 6.27410007 C-218.35764069 5.47458718 -214.22445434 5.09775063 -209.86825848 4.96402621 C-208.88154608 4.93211793 -208.88154608 4.93211793 -207.8749001 4.89956504 C-205.68042692 4.8296532 -203.48582377 4.76559943 -201.29117107 4.7015903 C-199.70905877 4.6524987 -198.12695652 4.603082 -196.5448637 4.55336642 C-192.2300544 4.41904805 -187.91509787 4.2902416 -183.60007286 4.16306067 C-180.86260416 4.08223674 -178.12516677 4.00042136 -175.38773632 3.91831279 C-166.70910081 3.65824575 -158.03037714 3.40147354 -149.35150409 3.14945525 C-140.51439873 2.89283634 -131.67754165 2.63000021 -122.84097576 2.35539889 C-81.89609237 1.0852833 -40.96703878 0.03915507 0 0 Z " fill="#86BA4B" transform="translate(947.6437101364136,87.72589993476868)"/>
<path d="M0 0 C2.81899685 0.01705936 5.63800873 0.02905879 8.45703125 0.04101562 C15.09654011 0.07176416 21.73574579 0.12178006 28.375 0.1875 C29.39046794 2.55692519 30.40593557 4.92635052 31.42140198 7.29577637 C32.34680196 9.45503953 33.27220702 11.61430051 34.19761658 13.77355957 C36.57045747 19.31013167 38.94325611 24.84672185 41.31586742 30.38339233 C42.711852 33.64102371 44.10787068 36.89864048 45.50390625 40.15625 C45.78750566 40.81802246 46.07110508 41.47979492 46.36329842 42.16162109 C50.47874629 51.76474163 54.59619751 61.36700077 58.71484375 70.96875 C71.96440436 101.85989579 85.17233039 132.76778203 98.25390625 163.73046875 C98.66735794 164.70902832 99.08080963 165.68758789 99.50679016 166.69580078 C101.56349965 171.56502586 103.61797088 176.43517686 105.66821289 181.30712891 C109.09370316 189.4437367 112.52796275 197.57464699 116.0546875 205.66796875 C116.58893715 206.90110363 117.12296467 208.13433477 117.65673828 209.36767578 C118.60122699 211.54342347 119.55462395 213.71533717 120.51904297 215.88232422 C121.12063232 217.27281982 121.12063232 217.27281982 121.734375 218.69140625 C122.25209473 219.86425171 122.25209473 219.86425171 122.78027344 221.06079102 C123.47260267 223.53652172 123.32846238 224.81664111 122.375 227.1875 C120.51953125 228.26953125 120.51953125 228.26953125 118.1875 229 C117.05248047 229.38091797 117.05248047 229.38091797 115.89453125 229.76953125 C109.43127102 230.84173101 104.66678429 228.03843873 99.25 224.9375 C98.47446777 224.50002441 97.69893555 224.06254883 96.89990234 223.61181641 C87.46637616 218.21074145 78.41677718 212.21338157 69.375 206.1875 C68.06523928 205.31880667 66.75535507 204.45029948 65.4453125 203.58203125 C62.75047289 201.79075551 60.05981612 199.99374824 57.375 198.1875 C53.39513059 201.7969281 50.55678874 206.01794624 47.5625 210.4375 C46.99845459 211.26668945 46.43440918 212.09587891 45.85327148 212.95019531 C35.55718448 228.21598061 26.06038135 244.0069779 16.50854492 259.74414062 C4.69321768 279.20978788 -7.39628038 298.50095617 -19.70629883 317.65722656 C-26.18027248 327.74002591 -32.63052338 337.81144228 -38.625 348.1875 C-39.38562744 349.49195068 -39.38562744 349.49195068 -40.16162109 350.82275391 C-65.24603775 393.99918858 -82.39397831 439.18579459 -84.1875 489.375 C-84.25227539 491.08913086 -84.25227539 491.08913086 -84.31835938 492.83789062 C-84.42316296 495.62100811 -84.52533299 498.40419465 -84.625 501.1875 C-87.925 501.1875 -91.225 501.1875 -94.625 501.1875 C-109.20833333 470.97916667 -123.79166667 440.77083333 -138.375 410.5625 C-138.66377518 409.96432465 -138.95255035 409.36614929 -139.25007629 408.74984741 C-139.833161 407.54202545 -140.41624003 406.33420075 -140.99931335 405.12637329 C-142.46140391 402.09769336 -143.92359455 399.06906184 -145.38598633 396.04052734 C-148.24257584 390.12442092 -151.09765466 384.20759358 -153.94921875 378.2890625 C-160.23381369 365.24999637 -166.54847818 352.22613939 -172.8923645 339.21582031 C-175.33427876 334.20708787 -177.77417554 329.19737214 -180.21412659 324.18768311 C-182.00616386 320.50866958 -183.79903246 316.8300736 -185.59570312 313.15332031 C-231.06258939 220.08776101 -231.06258939 220.08776101 -216.53125 177.65625 C-207.15363426 152.11033127 -193.66890299 128.25422889 -179.69921875 105 C-173.77828085 95.13982586 -168.08067024 85.15230984 -162.35107422 75.18017578 C-159.4620416 70.17115713 -156.54448859 65.17881227 -153.625 60.1875 C-157.11397634 57.26499657 -160.63888209 54.9097488 -164.60546875 52.68359375 C-165.171483 52.3637854 -165.73749725 52.04397705 -166.32066345 51.71447754 C-167.52670147 51.03316784 -168.73374317 50.3536322 -169.94171143 49.67575073 C-173.10434405 47.89942037 -176.257431 46.10634007 -179.41015625 44.3125 C-180.03372009 43.95784164 -180.65728394 43.60318329 -181.29974365 43.23777771 C-188.58038263 39.08722233 -195.75708953 34.78305849 -202.8359375 30.296875 C-204.51028419 29.25863382 -206.22298763 28.2829787 -207.9375 27.3125 C-208.865625 26.755625 -209.79375 26.19875 -210.75 25.625 C-211.51570313 25.19058594 -212.28140625 24.75617188 -213.0703125 24.30859375 C-215.0225323 21.64513809 -214.78720927 20.31304339 -214.72216797 17.05493164 C-214.70813934 16.1459462 -214.69411072 15.23696075 -214.67965698 14.3004303 C-214.66162018 13.6031633 -214.64358337 12.9058963 -214.625 12.1875 C-199.85091207 11.05721272 -185.07619185 9.93546153 -170.30078316 8.82257366 C-163.43265767 8.30508618 -156.56472797 7.7852538 -149.69726562 7.2590332 C-48.54933338 -0.48251932 -48.54933338 -0.48251932 0 0 Z " fill="#86BB49" transform="translate(573.625,426.8125)"/>
<path d="M0 0 C1.07200433 0.00350244 2.14400866 0.00700487 3.24849796 0.01061344 C19.83063125 0.09291073 36.41146865 0.39718656 52.99122119 0.67417407 C55.91530859 0.72289251 58.83940528 0.77101014 61.76350594 0.81892586 C71.99374006 0.98656707 82.22393673 1.15630829 92.45410156 1.328125 C101.95137861 1.48757744 111.44872439 1.64234597 120.94611305 1.79499191 C129.15057751 1.92706068 137.35498482 2.06234881 145.55935532 2.200131 C150.43858856 2.28201951 155.31783432 2.36264023 160.19714165 2.44000053 C164.77175525 2.51264098 169.3462843 2.58930567 173.92078018 2.66900635 C175.59202389 2.69745394 177.26329222 2.72449764 178.93458366 2.74998665 C181.22665114 2.78516868 183.51857303 2.8255627 185.81053162 2.86717224 C187.08885077 2.88837348 188.36716993 2.90957472 189.68422604 2.93141842 C194.34829479 3.13172024 198.99518126 3.6367984 203.64038086 4.10131836 C203.64038086 81.32131836 203.64038086 158.54131836 203.64038086 238.10131836 C183.50277934 238.73061841 163.38365051 239.31031253 143.24194336 239.63647461 C140.65627848 239.67976439 138.07061569 239.72317878 135.48495483 239.76670837 C130.1223996 239.85643639 124.75982107 239.94450869 119.3972168 240.03125 C113.97952941 240.11891372 108.56189159 240.20911283 103.14428711 240.30175781 C-18.94047226 242.38773883 -18.94047226 242.38773883 -44.35961914 223.10131836 C-45.91229492 221.93922852 -45.91229492 221.93922852 -47.49633789 220.75366211 C-67.64857598 204.88474223 -81.62477868 179.32417512 -85.35961914 154.10131836 C-88.00935967 112.26465649 -74.41517222 73.72352437 -54.61743164 37.44213867 C-53.43941951 35.24982883 -52.31172328 33.04042268 -51.20336914 30.81225586 C-45.26429313 18.96022242 -37.61014032 8.10075366 -24.81665039 3.10913086 C-16.53017571 0.47651409 -8.63285746 -0.0534399 0 0 Z " fill="#86BB49" transform="translate(589.359619140625,764.898681640625)"/>
<path d="M0 0 C2.06830144 1.22162834 3.81612583 2.54705004 5.62890625 4.12109375 C6.18578125 4.57097656 6.74265625 5.02085937 7.31640625 5.484375 C16.24826112 13.48582832 22.18606931 25.32480902 28.46069336 35.44189453 C32.4146024 41.81136772 36.45645471 48.12325533 40.50390625 54.43359375 C46.72524161 64.138819 52.9218212 73.85836497 59.05566406 83.61914062 C60.16562233 85.38432566 61.27709404 87.14855947 62.38964844 88.91210938 C105.80519096 157.74664128 105.80519096 157.74664128 108.62890625 179.12109375 C108.76167969 180.11882812 108.89445312 181.1165625 109.03125 182.14453125 C111.89357503 210.25320622 103.13629442 240.78934199 85.30322266 262.75390625 C55.84384301 297.43910546 14.07127244 306.15832036 -29.37109375 310.12109375 C-30.11117676 310.19312012 -30.85125977 310.26514648 -31.61376953 310.33935547 C-40.11686587 311.15567004 -48.64696033 311.2701015 -57.18359375 311.37109375 C-58.23434082 311.39260498 -59.28508789 311.41411621 -60.36767578 311.4362793 C-68.75402272 311.47144913 -76.77729534 310.78499376 -83.24609375 304.99609375 C-92.78951146 294.4390465 -100.13091383 282.08606456 -107.23974609 269.83056641 C-111.37593126 262.72343871 -115.72242055 255.77831562 -120.18359375 248.87109375 C-126.39198632 239.25229978 -132.45357159 229.55515177 -138.43408203 219.79321289 C-143.55714973 211.43290396 -148.7347948 203.10842646 -153.94433594 194.80175781 C-156.84012015 190.18160341 -159.72496374 185.55615625 -162.56640625 180.90234375 C-169.61289494 169.37763041 -176.96987118 158.0995212 -184.54418945 146.91674805 C-185.11327782 146.07271172 -185.11327782 146.07271172 -185.69386292 145.21162415 C-186.73034665 143.67487811 -187.77080858 142.14081739 -188.81152344 140.60693359 C-192.24887122 135.12805521 -191.90276904 129.39173471 -191.37109375 123.12109375 C-189.1179261 113.34721788 -181.36123853 108.00777859 -173.375 102.765625 C-167.71160575 99.01989084 -162.0818142 95.22719499 -156.4609375 91.41796875 C-154.62702665 90.17697467 -152.79304083 88.93609137 -150.95898438 87.6953125 C-148.1439438 85.79068358 -145.32946503 83.88525373 -142.5168457 81.97705078 C-133.01437274 75.53177896 -123.4975448 69.14418533 -113.75 63.07421875 C-106.34444832 58.4587806 -99.18781775 53.55668488 -92.06669617 48.51559448 C-82.28218941 41.60645767 -72.26518704 35.058103 -62.24609375 28.49609375 C-59.4371908 26.65270554 -56.62886022 24.80844985 -53.82086182 22.96368408 C-51.98866128 21.76045092 -50.15578588 20.55824472 -48.32220459 19.3571167 C-43.94299086 16.48522915 -39.57858167 13.59489 -35.24316406 10.65722656 C-34.43211212 10.10934479 -33.62106018 9.56146301 -32.78543091 8.99697876 C-31.27778577 7.97635586 -29.77333244 6.95099359 -28.2729187 5.91976929 C-19.71926791 0.13570471 -10.37091358 -3.84424309 0 0 Z " fill="#86BA4C" transform="translate(1259.37109375,432.87890625)"/>
<path d="M0 0 C1.00515152 0.00356506 1.00515152 0.00356506 2.03060913 0.00720215 C13.65847165 0.07140539 24.69069337 1.1948683 35.875 4.4375 C36.8340625 4.71464844 37.793125 4.99179688 38.78125 5.27734375 C77.93337021 19.06956791 98.71936789 56.94080122 118.85253906 90.20776367 C122.15409569 95.6529303 125.52128509 101.04161112 129 106.375 C129.69222656 107.45910156 130.38445312 108.54320312 131.09765625 109.66015625 C132.14063513 111.28995401 133.20281605 112.90823313 134.30859375 114.49609375 C138.32339597 120.95589664 138.02431046 129.14583722 136.875 136.4375 C133.44683431 150.53895869 124.39368849 163.26387759 116.875 175.4375 C116.33004883 176.32518066 115.78509766 177.21286133 115.22363281 178.12744141 C111.99820345 183.38114348 108.74868882 188.61944741 105.48681641 193.85058594 C102.83696456 198.10351386 100.19968761 202.36421154 97.5625 206.625 C97.03180908 207.48206543 96.50111816 208.33913086 95.9543457 209.22216797 C88.90458292 220.61290736 81.89181579 232.02644902 74.875 243.4375 C66.87847292 256.44180008 58.87879614 269.4439108 50.83642578 282.41992188 C43.8221785 293.74239022 36.85059646 305.09119525 29.875 316.4375 C8.01564586 314.80641122 -8.5639929 303.3699284 -26.22460938 291.39941406 C-31.19736629 288.03568724 -36.1922979 284.7052682 -41.1875 281.375 C-42.19707764 280.70170654 -43.20665527 280.02841309 -44.24682617 279.3347168 C-53.82264743 272.95726458 -63.45149917 266.66564437 -73.125 260.4375 C-73.96643555 259.89448242 -74.80787109 259.35146484 -75.67480469 258.79199219 C-95.82001884 245.80851144 -116.25110773 233.32176157 -137.0625 221.4375 C-164.35881748 205.75516744 -164.35881748 205.75516744 -167.125 196.4375 C-170.05145199 179.41087024 -154.76367394 162.72819903 -146.1015625 149.5234375 C-140.57065718 141.08039615 -135.16654321 132.55768267 -129.76855469 124.02929688 C-128.19778623 121.55227996 -126.61959829 119.08016762 -125.0390625 116.609375 C-114.78525886 100.54380041 -105.15375794 84.14648445 -95.875 67.5 C-93.62768787 63.47765693 -91.3775092 59.45693475 -89.125 55.4375 C-88.69203613 54.66196777 -88.25907227 53.88643555 -87.81298828 53.08740234 C-74.62619136 29.6230606 -55.54836986 10.9596193 -29.125 3.4375 C-19.35165332 0.84975626 -10.09417223 -0.07864765 0 0 Z " fill="#86BA4B" transform="translate(697.125,111.5625)"/>
<path d="M0 0 C29.82522091 -0.82466049 60.90694179 11.09483982 82.6484375 31.66015625 C91.03013213 40.4982798 97.37298934 50.41499961 103.015625 61.15625 C103.72332031 62.47302734 103.72332031 62.47302734 104.4453125 63.81640625 C118.84829862 92.75656779 119.09447257 131.41506812 109.828125 161.84375 C100.14878394 188.83643623 80.36913904 210.73155255 54.453125 223.09375 C47.21253244 226.36568531 39.7795558 228.52130584 32.015625 230.15625 C30.95214844 230.38183594 29.88867188 230.60742188 28.79296875 230.83984375 C0.33913545 235.66534764 -30.19242742 233.4075553 -54.234375 216.40625 C-60.92936112 211.47937594 -67.06318716 205.97964044 -72.984375 200.15625 C-73.93183594 199.24552734 -73.93183594 199.24552734 -74.8984375 198.31640625 C-98.30228274 173.85883338 -104.81673784 138.23016734 -104.32421875 105.75390625 C-104.04355251 96.3265485 -102.32014844 87.94943934 -98.984375 79.15625 C-98.7167334 78.44839355 -98.4490918 77.74053711 -98.17333984 77.01123047 C-86.67352309 47.48358146 -65.21807968 21.55511173 -36.109375 8.34375 C-24.57314152 3.37921481 -12.52162545 0.65558248 0 0 Z M-24.984375 77.15625 C-26.02078125 77.92710938 -27.0571875 78.69796875 -28.125 79.4921875 C-37.78568284 87.19262458 -42.07561121 96.98788087 -43.984375 109.15625 C-45.34622052 125.18584151 -40.64939706 139.24016198 -30.8828125 151.875 C-22.62831989 161.55871571 -13.88285488 167.9263082 -0.984375 168.96875 C11.86566342 169.63514142 23.42123994 166.67484585 34.015625 159.15625 C44.24645358 149.60747666 50.59536904 135.24307249 51.38671875 121.359375 C51.82030535 103.92013889 46.68149347 90.91311749 35.04296875 77.9609375 C26.23209873 69.60237087 14.01157727 65.5653182 2.00390625 65.84765625 C-8.23490896 66.90499795 -16.8509698 71.02173252 -24.984375 77.15625 Z " fill="#3582BB" transform="translate(1083.984375,1355.84375)"/>
<path d="M0 0 C23.48567789 19.61217199 35.48012711 51.40033553 38.5703125 81.01171875 C41.1180835 111.40065125 31.22578186 142.31114934 11.74609375 165.70703125 C9.54998703 168.19340599 7.29057656 170.60073175 5 173 C4.33871094 173.74765625 3.67742187 174.4953125 2.99609375 175.265625 C-14.20606199 193.93665552 -43.45464679 205.02996779 -68.43994141 206.10498047 C-96.8362387 206.9498897 -121.81092675 199.50740077 -143 180 C-143.51127441 179.53110352 -144.02254883 179.06220703 -144.54931641 178.57910156 C-167.81815299 156.99378032 -181.49041526 128.74950224 -183.1640625 96.87548828 C-183.81150685 78.24797489 -183.53393574 59.95704114 -175 43 C-174.57243408 42.12480713 -174.57243408 42.12480713 -174.13623047 41.23193359 C-167.61601617 27.95308699 -159.14585644 16.76852633 -149 6 C-148.38898437 5.32453125 -147.77796875 4.6490625 -147.1484375 3.953125 C-137.06425257 -6.77473131 -123.95768586 -14.2725333 -111 -21 C-110.1646875 -21.4434375 -109.329375 -21.886875 -108.46875 -22.34375 C-72.9347105 -38.85957118 -28.51489815 -22.78916727 0 0 Z M-104 50 C-105.2065625 50.86044922 -105.2065625 50.86044922 -106.4375 51.73828125 C-115.75623063 59.0893745 -121.21545298 71.40044436 -123 83 C-124.71778051 98.6528367 -119.40203126 111.57731614 -110 124 C-102.17433768 133.40744513 -93.06473437 139.64961915 -80.734375 140.84765625 C-66.4669953 141.42969371 -51.70184775 140.08558098 -40 131 C-38.18384375 128.85162004 -36.58031791 126.80395878 -35 124.5 C-34.35599243 123.57731323 -34.35599243 123.57731323 -33.69897461 122.63598633 C-27.04105514 112.89168053 -19.23084745 100.28467724 -21 88 C-23.90791702 73.64113288 -29.29627691 62.0928041 -39 51 C-39.65162109 50.12021484 -39.65162109 50.12021484 -40.31640625 49.22265625 C-45.6568565 42.64335547 -56.92608351 40.24999023 -65 39 C-79.96148165 37.92376134 -91.86186156 41.02591899 -104 50 Z " fill="#3583BB" transform="translate(742,1384)"/>
</svg>
